<svg width="423" height="388" viewBox="0 0 423 388" fill="none" xmlns="http://www.w3.org/2000/svg">
<path d="M418.03 180.91H413.84V181.9H418.03V180.91Z" fill="#C7C7C7"/>
<path d="M211.35 310.19H418V103.19L211.35 310.19ZM380 272.35H304.77L380.13 197L380 272.35Z" fill="#DBDBDB"/>
<path d="M411.67 109.59L410.75 110.51L211.35 310.19H418V103.19L411.67 109.59ZM380 272.36H304.77L380.14 197L380 272.36Z" fill="#EBEBEB"/>
<path d="M418.03 111.95H410.93V112.94H418.03V111.95Z" fill="#C7C7C7"/>
<path d="M418.03 116.55H413.84V117.54H418.03V116.55Z" fill="#C7C7C7"/>
<path d="M418.03 121.14H413.84V122.13H418.03V121.14Z" fill="#C7C7C7"/>
<path d="M418.03 125.74H413.84V126.73H418.03V125.74Z" fill="#C7C7C7"/>
<path d="M418.03 130.34H413.84V131.33H418.03V130.34Z" fill="#C7C7C7"/>
<path d="M418.03 134.93H413.84V135.93H418.03V134.93Z" fill="#C7C7C7"/>
<path d="M418.03 139.53H413.84V140.52H418.03V139.53Z" fill="#C7C7C7"/>
<path d="M418.03 144.13H410.93V145.12H418.03V144.13Z" fill="#C7C7C7"/>
<path d="M418.03 148.74H413.84V149.73H418.03V148.74Z" fill="#C7C7C7"/>
<path d="M418.03 153.32H413.84V154.31H418.03V153.32Z" fill="#C7C7C7"/>
<path d="M418.03 157.93H413.84V158.92H418.03V157.93Z" fill="#C7C7C7"/>
<path d="M418.03 162.53H413.84V163.52H418.03V162.53Z" fill="#C7C7C7"/>
<path d="M418.03 167.12H413.84V168.11H418.03V167.12Z" fill="#C7C7C7"/>
<path d="M418.03 171.72H413.84V172.71H418.03V171.72Z" fill="#C7C7C7"/>
<path d="M418.03 176.32H410.93V177.31H418.03V176.32Z" fill="#C7C7C7"/>
<path d="M418.03 185.51H413.84V186.5H418.03V185.51Z" fill="#C7C7C7"/>
<path d="M418.03 190.11H413.84V191.1H418.03V190.11Z" fill="#C7C7C7"/>
<path d="M418.03 194.7H413.84V195.7H418.03V194.7Z" fill="#C7C7C7"/>
<path d="M418.03 199.3H413.84V200.29H418.03V199.3Z" fill="#C7C7C7"/>
<path d="M418.03 203.91H413.84V204.9H418.03V203.91Z" fill="#C7C7C7"/>
<path d="M418.03 208.51H410.93V209.5H418.03V208.51Z" fill="#C7C7C7"/>
<path d="M418.03 213.09H413.84V214.08H418.03V213.09Z" fill="#C7C7C7"/>
<path d="M418.03 217.7H413.84V218.69H418.03V217.7Z" fill="#C7C7C7"/>
<path d="M418.03 222.3H413.84V223.29H418.03V222.3Z" fill="#C7C7C7"/>
<path d="M418.03 226.89H413.84V227.88H418.03V226.89Z" fill="#C7C7C7"/>
<path d="M418.03 231.49H413.84V232.48H418.03V231.49Z" fill="#C7C7C7"/>
<path d="M418.03 236.09H413.84V237.08H418.03V236.09Z" fill="#C7C7C7"/>
<path d="M418.03 240.68H410.93V241.68H418.03V240.68Z" fill="#C7C7C7"/>
<path d="M418.03 245.28H413.84V246.27H418.03V245.28Z" fill="#C7C7C7"/>
<path d="M418.03 249.88H413.84V250.87H418.03V249.88Z" fill="#C7C7C7"/>
<path d="M418.03 254.49H413.84V255.48H418.03V254.49Z" fill="#C7C7C7"/>
<path d="M418.03 259.07H413.84V260.06H418.03V259.07Z" fill="#C7C7C7"/>
<path d="M418.03 263.68H413.84V264.67H418.03V263.68Z" fill="#C7C7C7"/>
<path d="M418.03 268.28H413.84V269.27H418.03V268.28Z" fill="#C7C7C7"/>
<path d="M418.03 272.87H410.93V273.86H418.03V272.87Z" fill="#C7C7C7"/>
<path d="M418.03 277.47H413.84V278.46H418.03V277.47Z" fill="#C7C7C7"/>
<path d="M418.03 282.07H413.84V283.06H418.03V282.07Z" fill="#C7C7C7"/>
<path d="M418.03 286.66H413.84V287.65H418.03V286.66Z" fill="#C7C7C7"/>
<path d="M418.03 291.26H413.84V292.25H418.03V291.26Z" fill="#C7C7C7"/>
<path d="M418.03 295.86H413.84V296.85H418.03V295.86Z" fill="#C7C7C7"/>
<path d="M418.03 300.45H413.84V301.45H418.03V300.45Z" fill="#C7C7C7"/>
<path d="M395.81 148.37L401.32 139.5L398.6 137.82C398.211 137.574 397.897 137.226 397.694 136.813C397.491 136.399 397.407 135.938 397.45 135.48C397.48 134.96 397.48 134.44 397.45 133.92C397.436 133.461 397.551 133.008 397.78 132.61C398.01 132.213 398.346 131.887 398.75 131.67L401.57 130.16L396.67 121L393.85 122.51C393.445 122.725 392.988 122.823 392.531 122.793C392.073 122.763 391.633 122.606 391.26 122.34C390.832 122.042 390.388 121.768 389.93 121.52C389.525 121.302 389.189 120.977 388.957 120.58C388.726 120.183 388.609 119.729 388.62 119.27L388.72 116.07L378.29 115.75L378.19 118.96C378.171 119.419 378.025 119.863 377.77 120.244C377.514 120.626 377.157 120.929 376.74 121.12C376.5 121.22 376.28 121.34 376.05 121.46C375.82 121.58 375.6 121.71 375.38 121.84C374.991 122.08 374.542 122.207 374.085 122.207C373.628 122.207 373.179 122.08 372.79 121.84L370.05 120.15L364.55 129.02L367.27 130.71C367.659 130.956 367.973 131.304 368.176 131.717C368.379 132.131 368.463 132.592 368.42 133.05C368.373 133.565 368.357 134.083 368.37 134.6C368.384 135.059 368.269 135.512 368.04 135.91C367.81 136.307 367.474 136.633 367.07 136.85L364.25 138.36L369.19 147.57L372 146C372.405 145.785 372.862 145.687 373.319 145.717C373.777 145.747 374.217 145.904 374.59 146.17C375.017 146.463 375.457 146.733 375.91 146.98C376.316 147.196 376.654 147.521 376.886 147.918C377.117 148.316 377.233 148.77 377.22 149.23L377.13 152.44L387.56 152.76L387.66 149.56C387.68 149.102 387.826 148.658 388.082 148.277C388.338 147.896 388.693 147.592 389.11 147.4L389.81 147.06C390.03 146.93 390.26 146.81 390.48 146.67C390.871 146.429 391.321 146.302 391.78 146.302C392.239 146.302 392.689 146.429 393.08 146.67L395.81 148.37ZM387 141.78C385.509 142.578 383.816 142.916 382.133 142.751C380.45 142.586 378.854 141.927 377.547 140.855C376.239 139.784 375.278 138.348 374.786 136.731C374.294 135.113 374.292 133.386 374.781 131.768C375.27 130.15 376.228 128.713 377.534 127.639C378.84 126.565 380.435 125.902 382.117 125.734C383.799 125.566 385.494 125.901 386.986 126.696C388.478 127.491 389.701 128.71 390.5 130.2C391.032 131.19 391.364 132.275 391.476 133.393C391.589 134.511 391.479 135.641 391.154 136.717C390.829 137.792 390.294 138.793 389.582 139.662C388.869 140.531 387.992 141.251 387 141.78Z" fill="#DBDBDB"/>
<path d="M120.81 65.21L117.15 58.87L115.21 60C114.931 60.1602 114.613 60.2394 114.291 60.2288C113.97 60.2182 113.658 60.1182 113.39 59.94C113.086 59.7386 112.769 59.5581 112.44 59.4C112.146 59.2604 111.896 59.0413 111.719 58.7675C111.543 58.4936 111.446 58.1759 111.44 57.85V55.6H104.12V57.84C104.117 58.1664 104.021 58.4851 103.844 58.7594C103.667 59.0337 103.416 59.2523 103.12 59.39C102.793 59.5504 102.475 59.7308 102.17 59.93C101.902 60.1082 101.59 60.2083 101.269 60.2188C100.947 60.2294 100.629 60.1502 100.35 59.99L98.41 58.87L94.75 65.21L96.7 66.33C96.9781 66.4945 97.205 66.7332 97.3551 67.0193C97.5052 67.3054 97.5727 67.6277 97.55 67.95C97.55 68.13 97.55 68.3 97.55 68.49C97.55 68.68 97.55 68.85 97.55 69.02C97.5741 69.34 97.5082 69.6604 97.3598 69.9449C97.2114 70.2294 96.9863 70.4667 96.71 70.63L94.71 71.76L98.37 78.1L100.32 76.97C100.601 76.8135 100.919 76.7372 101.24 76.7496C101.561 76.7619 101.872 76.8624 102.14 77.04C102.442 77.2392 102.756 77.4195 103.08 77.58C103.376 77.7177 103.627 77.9363 103.804 78.2106C103.981 78.4849 104.077 78.8036 104.08 79.13V81.37H111.4V79.13C111.406 78.8042 111.503 78.4864 111.679 78.2126C111.856 77.9387 112.106 77.7196 112.4 77.58C112.725 77.4217 113.039 77.2413 113.34 77.04C113.61 76.8626 113.923 76.7623 114.245 76.7499C114.568 76.7376 114.888 76.8137 115.17 76.97L117.11 78.1L120.77 71.76L118.82 70.64C118.544 70.4701 118.321 70.2265 118.176 69.9368C118.032 69.647 117.97 69.3226 118 69C118 68.82 118 68.64 118 68.46C118 68.28 118 68.1 118 67.92C117.977 67.5977 118.045 67.2754 118.195 66.9893C118.345 66.7032 118.572 66.4645 118.85 66.3L120.81 65.21ZM113.81 68.49C113.81 69.6767 113.458 70.8367 112.799 71.8234C112.14 72.8101 111.202 73.5792 110.106 74.0333C109.01 74.4874 107.803 74.6062 106.639 74.3747C105.476 74.1432 104.406 73.5718 103.567 72.7326C102.728 71.8935 102.157 70.8244 101.925 69.6606C101.694 68.4967 101.813 67.2903 102.267 66.1939C102.721 65.0976 103.49 64.1605 104.477 63.5012C105.463 62.8419 106.623 62.49 107.81 62.49C109.401 62.49 110.927 63.1221 112.053 64.2474C113.178 65.3726 113.81 66.8987 113.81 68.49Z" fill="#DBDBDB"/>
<path d="M63.08 194.59C57.4424 194.588 51.9308 196.258 47.2425 199.389C42.5542 202.52 38.8997 206.971 36.7414 212.179C34.583 217.387 34.0178 223.118 35.1172 228.648C36.2165 234.177 38.9311 239.256 42.9175 243.243C46.9039 247.229 51.983 249.944 57.5124 251.043C63.0418 252.142 68.773 251.577 73.9811 249.419C79.1892 247.26 83.6402 243.606 86.7711 238.918C89.9019 234.229 91.572 228.718 91.57 223.08C91.57 215.524 88.5684 208.277 83.2255 202.935C77.8826 197.592 70.636 194.59 63.08 194.59ZM63.08 236.39C60.4476 236.39 57.8742 235.609 55.6854 234.147C53.4966 232.684 51.7906 230.606 50.7832 228.174C49.7758 225.741 49.5122 223.065 50.0258 220.483C50.5393 217.901 51.807 215.53 53.6684 213.668C55.5299 211.807 57.9015 210.539 60.4834 210.026C63.0653 209.512 65.7414 209.776 68.1735 210.783C70.6056 211.791 72.6844 213.497 74.1469 215.685C75.6094 217.874 76.39 220.448 76.39 223.08C76.3913 224.828 76.048 226.56 75.3795 228.175C74.7111 229.791 73.7308 231.258 72.4945 232.495C71.2583 233.731 69.7905 234.711 68.1751 235.38C66.5597 236.048 64.8283 236.391 63.08 236.39Z" fill="#EBEBEB"/>
<path d="M68.56 195.77H57.6L58.21 188.02H67.95L68.56 195.77Z" fill="#EBEBEB"/>
<path d="M47.7 199.47L39.95 207.21L34.9 201.3L41.79 194.41L47.7 199.47Z" fill="#EBEBEB"/>
<path d="M35.57 216.82V227.78L27.81 227.17V217.43L35.57 216.82Z" fill="#EBEBEB"/>
<path d="M39.26 237.68L47.01 245.43L41.09 250.48L34.2 243.59L39.26 237.68Z" fill="#EBEBEB"/>
<path d="M56.61 249.81H67.57L66.97 257.57H57.22L56.61 249.81Z" fill="#EBEBEB"/>
<path d="M77.47 246.12L85.22 238.38L90.27 244.29L83.38 251.18L77.47 246.12Z" fill="#EBEBEB"/>
<path d="M89.61 228.76V217.81L97.36 218.41V228.16L89.61 228.76Z" fill="#EBEBEB"/>
<path d="M85.92 207.91L78.17 200.16L84.08 195.11L90.97 202L85.92 207.91Z" fill="#EBEBEB"/>
<path d="M334.31 10.29C328.675 10.29 323.167 11.9609 318.482 15.0914C313.797 18.222 310.145 22.6715 307.989 27.8774C305.832 33.0832 305.268 38.8116 306.367 44.3381C307.467 49.8646 310.18 54.9411 314.165 58.9255C318.149 62.9099 323.225 65.6233 328.752 66.7226C334.278 67.8219 340.007 67.2577 345.213 65.1013C350.419 62.945 354.868 59.2934 357.999 54.6082C361.129 49.923 362.8 44.4148 362.8 38.78C362.801 35.0383 362.065 31.333 360.634 27.8758C359.203 24.4186 357.104 21.2774 354.458 18.6316C351.813 15.9858 348.671 13.8873 345.214 12.456C341.757 11.0247 338.052 10.2887 334.31 10.29ZM334.31 52.08C331.677 52.08 329.103 51.2991 326.914 49.8362C324.725 48.3732 323.019 46.2939 322.012 43.8612C321.005 41.4285 320.742 38.7518 321.256 36.1697C321.771 33.5875 323.04 31.2159 324.902 29.3549C326.764 27.4938 329.137 26.227 331.719 25.7145C334.302 25.2021 336.979 25.4671 339.41 26.476C341.842 27.485 343.92 29.1925 345.382 31.3826C346.843 33.5728 347.622 36.1471 347.62 38.78C347.62 40.5274 347.276 42.2577 346.607 43.872C345.938 45.4863 344.957 46.9529 343.721 48.1881C342.485 49.4232 341.018 50.4027 339.403 51.0705C337.788 51.7383 336.057 52.0813 334.31 52.08Z" fill="#EBEBEB"/>
<path d="M339.79 11.47H328.83L329.44 3.70999H339.18L339.79 11.47Z" fill="#EBEBEB"/>
<path d="M318.93 15.16L311.19 22.91L306.13 16.99L313.02 10.1L318.93 15.16Z" fill="#EBEBEB"/>
<path d="M306.8 32.52V43.47L299.04 42.87V33.12L306.8 32.52Z" fill="#EBEBEB"/>
<path d="M310.49 53.37L318.24 61.12L312.32 66.17L305.43 59.28L310.49 53.37Z" fill="#EBEBEB"/>
<path d="M327.85 65.51H338.8L338.2 73.26H328.45L327.85 65.51Z" fill="#EBEBEB"/>
<path d="M348.7 61.81L356.45 54.07L361.5 59.98L354.61 66.87L348.7 61.81Z" fill="#EBEBEB"/>
<path d="M360.84 44.46V33.5L368.59 34.11V43.85L360.84 44.46Z" fill="#EBEBEB"/>
<path d="M357.14 23.6L349.4 15.86L355.31 10.8L362.2 17.69L357.14 23.6Z" fill="#EBEBEB"/>
<path d="M250.11 281.9L250.17 294.71L250.11 294.65H262.46H262.57V294.76L262.64 310.49V310.67H262.45L250.1 310.73L250.34 310.49V323.31L250.08 323.04H256.62V323.32V339.04V339.34H247.26L247.54 339.16C244.495 345.662 239.264 350.889 232.76 353.93C229.531 355.435 226.067 356.375 222.52 356.71C220.75 356.88 218.97 356.87 217.22 356.87H206.73C204.959 356.91 203.186 356.859 201.42 356.72C197.868 356.395 194.398 355.465 191.16 353.97C187.93 352.447 184.979 350.392 182.43 347.89C179.903 345.364 177.827 342.425 176.29 339.2L176.69 339.45H167.63H167.17V339V323.28V322.8H173.92L173.43 323.29V310.44L173.92 310.93H161.57H161.1V310.46V294.73V294.28H161.55H173.9L173.48 294.71V281.9L173.88 282.31H161.53H161.14V281.92V266.19V265.82H161.51L211.97 265.9L262.43 266.06H262.56V266.19L262.49 281.92V282H262.43L250.11 281.9ZM250.11 281.9L262.46 281.84V281.9L262.39 266.17L262.51 266.29L212.05 266.45L161.59 266.53L161.95 266.17V281.9L161.57 281.51H173.92H174.33V281.92V294.73V295.15H173.9H161.55L161.99 294.71V310.44L161.52 309.97H173.87H174.36V323.77H167.61L168.09 323.29V339.01L167.64 338.55H176.7H177L177.12 338.8C178.609 341.938 180.617 344.801 183.06 347.27C185.54 349.703 188.405 351.71 191.54 353.21C194.696 354.673 198.077 355.59 201.54 355.92C203.26 356.09 205 356.08 206.77 356.08H217.31C219.08 356.08 220.82 356.08 222.55 355.94C226.012 355.618 229.394 354.708 232.55 353.25C238.904 350.29 244.018 345.194 247 338.85L247.08 338.67H256.34L256.04 338.97V323.25L256.31 323.52H249.78V323.26V310.44V310.2H250.02L262.37 310.26L262.19 310.44L262.26 294.71L262.37 294.82L250.02 294.77H249.96V294.72L250.11 281.9Z" fill="#263238"/>
<path d="M291.54 239.107C335.47 195.177 335.47 123.952 291.54 80.0219C247.61 36.0918 176.385 36.0918 132.455 80.0219C88.5252 123.952 88.5252 195.177 132.455 239.107C176.385 283.037 247.61 283.037 291.54 239.107Z" fill="white"/>
<path d="M212 272.55C189.651 272.55 167.803 265.923 149.221 253.506C130.638 241.089 116.154 223.441 107.602 202.793C99.0489 182.145 96.8111 159.425 101.171 137.505C105.531 115.585 116.294 95.4502 132.097 79.6469C147.9 63.8436 168.035 53.0814 189.955 48.7212C211.875 44.3611 234.595 46.5989 255.243 55.1516C275.891 63.7043 293.539 78.1878 305.956 96.7705C318.373 115.353 325 137.201 325 159.55C324.968 189.51 313.053 218.233 291.868 239.418C270.683 260.603 241.96 272.518 212 272.55ZM212 47.55C189.848 47.55 168.194 54.1187 149.776 66.4254C131.358 78.7321 117.003 96.2241 108.525 116.689C100.048 137.155 97.8305 159.674 102.152 181.4C106.474 203.126 117.141 223.082 132.804 238.746C148.468 254.409 168.424 265.076 190.15 269.398C211.876 273.719 234.395 271.502 254.861 263.024C275.326 254.547 292.818 240.192 305.125 221.774C317.431 203.356 324 181.701 324 159.55C323.96 129.859 312.147 101.395 291.152 80.4014C270.156 59.4075 241.691 47.597 212 47.56V47.55Z" fill="#263238"/>
<path d="M324.49 159.56C324.499 179.417 319.25 198.922 309.274 216.092C299.299 233.262 284.955 247.483 267.7 257.31C259.37 254.63 253.17 248.36 246.96 242.09C242.49 237.57 253.39 235.72 246.78 233.33C253.21 226.96 261.7 214.09 250.78 215.94C244.17 213.54 240.06 226.55 231.22 221.94C222.38 217.33 220 206.22 211.11 201.57L202.53 210.06C195.91 207.65 191.25 194.38 189.11 196.5C178.21 198.34 171.87 209.09 163.3 217.57C158.82 213.06 152.21 210.67 154.3 204.16C194.66 159.1 234.3 111.87 276.08 67.06C291.031 77.4105 303.248 91.235 311.68 107.347C320.112 123.458 324.508 141.375 324.49 159.56Z" fill="#7F5BEB"/>
<path d="M223.65 279H221.65V207.61C218.95 207.61 214.41 207.66 212.38 207.66H211.62C209.62 207.66 205.06 207.66 202.35 207.61V279H200.35V205.58H201.35C203.55 205.58 208.81 205.64 211.6 205.64H212.36C215.15 205.64 220.41 205.64 222.61 205.58H223.61L223.65 279Z" fill="#263238"/>
<path d="M221.65 207.62V184.2C221.65 175.55 226.43 169.33 233.83 168.35C240.83 167.43 249.83 171.92 253.04 183.94C255.12 191.66 254.82 196.94 252.12 200.51C247.89 206.11 238.12 207.35 222.66 207.6L221.65 207.62ZM235.65 170.24C235.135 170.238 234.62 170.271 234.11 170.34C227.77 171.17 223.67 176.61 223.67 184.2V205.58C237.57 205.31 246.91 204.11 250.54 199.31C252.84 196.25 253.03 191.54 251.13 184.46C248.44 174.49 241.51 170.24 235.63 170.24H235.65Z" fill="#263238"/>
<path d="M202.35 207.62H201.35C185.9 207.37 176.13 206.13 171.91 200.53C169.2 196.95 168.91 191.68 170.97 183.96C174.2 171.96 183.2 167.45 190.2 168.37C197.59 169.37 202.37 175.57 202.37 184.22L202.35 207.62ZM188.35 170.24C182.47 170.24 175.54 174.49 172.86 184.46C170.97 191.54 171.16 196.25 173.46 199.31C177.09 204.11 186.46 205.31 200.33 205.58V184.2C200.33 176.61 196.23 171.2 189.89 170.34C189.386 170.272 188.878 170.239 188.37 170.24H188.35Z" fill="#263238"/>
<path d="M226.17 249.46H197.83C192.628 249.46 188.41 253.677 188.41 258.88V264.73C188.41 269.933 192.628 274.15 197.83 274.15H226.17C231.373 274.15 235.59 269.933 235.59 264.73V258.88C235.59 253.677 231.373 249.46 226.17 249.46Z" fill="#A6A6A6"/>
<path d="M131.25 79.81C141.814 69.2392 154.37 60.8679 168.19 55.18C182.015 49.4938 196.801 46.5067 211.75 46.38C226.71 46.2416 241.555 49.0095 255.46 54.53C269.374 60.0636 282.022 68.3607 292.64 78.92C303.223 89.5139 311.574 102.122 317.2 116C328.509 144.049 328.645 175.364 317.58 203.51C312.103 217.48 303.832 230.185 293.272 240.846C282.713 251.507 270.087 259.9 256.17 265.51C242.275 271.149 227.416 274.032 212.42 274C197.438 273.975 182.6 271.076 168.71 265.46C154.82 259.853 142.19 251.528 131.56 240.974C120.931 230.42 112.516 217.85 106.81 204C95.352 176.065 95.3017 144.752 106.67 116.78C112.316 102.941 120.673 90.3708 131.25 79.81ZM131.25 79.81C120.71 90.3899 112.39 102.97 106.78 116.81C95.526 144.744 95.6624 175.975 107.16 203.81C112.884 217.575 121.296 230.06 131.904 240.534C142.512 251.009 155.103 259.261 168.94 264.81C182.765 270.352 197.525 273.194 212.42 273.18C227.306 273.192 242.052 270.312 255.84 264.7C269.608 259.062 282.099 250.707 292.566 240.133C303.033 229.56 311.262 216.985 316.76 203.16C327.846 175.21 327.796 144.074 316.62 116.16C311.091 102.311 302.807 89.73 292.269 79.1789C281.732 68.6279 269.162 60.3272 255.32 54.78C241.471 49.238 226.677 46.4395 211.76 46.54C196.833 46.6197 182.06 49.5594 168.24 55.2C154.404 60.8775 141.832 69.2422 131.25 79.81Z" fill="#263238"/>
<path d="M325.49 160.56C325.455 145.623 322.457 130.841 316.67 117.07C310.882 103.305 302.508 90.7791 292 80.17C281.523 69.5451 269.083 61.0547 255.37 55.17C241.659 49.3208 226.906 46.307 212 46.31C197.095 46.3645 182.351 49.4043 168.64 55.25C141.023 67.0927 118.988 89.0597 107.06 116.64C101.17 130.302 98.0953 145.012 98.0197 159.89C97.9441 174.768 100.869 189.508 106.62 203.23C112.399 216.948 120.788 229.412 131.32 239.93C141.848 250.471 154.3 258.897 168 264.75C181.705 270.62 196.444 273.694 211.353 273.79C226.262 273.886 241.04 271.003 254.82 265.31C282.653 253.753 304.842 231.74 316.62 204C322.44 190.255 325.456 175.486 325.49 160.56ZM325.49 160.56C325.503 175.506 322.525 190.303 316.73 204.08C304.995 231.887 282.836 253.992 255 265.66C241.173 271.413 226.337 274.347 211.362 274.29C196.386 274.234 181.573 271.187 167.79 265.33C153.977 259.488 141.415 251.045 130.79 240.46C120.145 229.899 111.654 217.37 105.79 203.57C99.9141 189.759 96.923 174.892 97.0004 159.884C97.0777 144.875 100.222 130.04 106.24 116.29C118.316 88.5647 140.552 66.5178 168.38 54.68C182.159 48.8048 196.988 45.7904 211.967 45.8196C226.947 45.8488 241.764 48.9211 255.52 54.85C269.261 60.7766 281.719 69.3184 292.2 80C302.684 90.6497 311.032 103.209 316.79 117C322.538 130.803 325.495 145.608 325.49 160.56Z" fill="#263238"/>
<path d="M211 275.67C226.149 275.63 241.141 272.592 255.11 266.73C269.066 260.865 281.769 252.378 292.53 241.73C303.305 231.103 311.912 218.482 317.87 204.57C323.813 190.662 326.875 175.694 326.87 160.57C326.82 145.444 323.736 130.482 317.8 116.57C305.796 88.5555 283.516 66.204 255.54 54.11C241.682 48.1359 226.762 45.017 211.671 44.9397C196.58 44.8624 181.629 47.8282 167.71 53.66C153.8 59.5282 141.16 68.0387 130.49 78.72C119.799 89.395 111.252 102.019 105.31 115.91C99.3601 129.81 96.2457 144.759 96.1496 159.879C96.0534 174.998 98.9774 189.985 104.75 203.96C116.466 232.183 138.779 254.69 166.9 266.65C180.851 272.569 195.845 275.636 211 275.67ZM211 275.67C195.842 275.678 180.835 272.659 166.86 266.79C138.653 254.872 116.239 232.378 104.42 204.13C98.5797 190.108 95.6004 175.061 95.657 159.872C95.7137 144.682 98.8052 129.658 104.75 115.68C110.693 101.69 119.265 88.9705 130 78.21C140.711 67.4203 153.417 58.8142 167.41 52.87C181.418 46.9132 196.496 43.8813 211.717 43.9604C226.939 44.0395 241.985 47.2279 255.93 53.33C284.041 65.5763 306.397 88.1188 318.41 116.33C324.371 130.303 327.43 145.341 327.4 160.532C327.371 175.724 324.255 190.75 318.24 204.7C312.225 218.629 303.565 231.259 292.74 241.89C281.931 252.522 269.184 260.985 255.19 266.82C241.191 272.664 226.17 275.672 211 275.67Z" fill="#263238"/>
<path d="M175.08 266.87H248.92V326C248.92 333.829 245.81 341.338 240.274 346.874C234.738 352.41 227.229 355.52 219.4 355.52H204.6C196.771 355.52 189.262 352.41 183.726 346.874C178.19 341.338 175.08 333.829 175.08 326V266.87Z" fill="#455A64"/>
<path d="M260.9 266.87H163.11V282.32H260.9V266.87Z" fill="#37474F"/>
<path d="M260.9 294.9H163.11V310.35H260.9V294.9Z" fill="#37474F"/>
<path d="M254.99 322.94H169.01V338.39H254.99V322.94Z" fill="#37474F"/>
<path d="M305.43 161.91C304.104 161.91 302.832 161.383 301.894 160.446C300.957 159.508 300.43 158.236 300.43 156.91C300.43 104.37 248.76 74.02 248.24 73.72C247.09 73.057 246.251 71.9644 245.907 70.6825C245.563 69.4007 245.742 68.0347 246.405 66.885C247.068 65.7353 248.161 64.8961 249.442 64.5519C250.724 64.2078 252.09 64.387 253.24 65.05C263.817 71.5535 273.428 79.5113 281.79 88.69C300.55 109.07 310.46 132.69 310.46 156.91C310.46 157.569 310.33 158.222 310.076 158.83C309.823 159.439 309.452 159.991 308.985 160.456C308.517 160.921 307.963 161.289 307.353 161.538C306.742 161.788 306.089 161.914 305.43 161.91Z" fill="white"/>
<path d="M304.21 187.06C307.507 187.06 310.18 184.387 310.18 181.09C310.18 177.793 307.507 175.12 304.21 175.12C300.913 175.12 298.24 177.793 298.24 181.09C298.24 184.387 300.913 187.06 304.21 187.06Z" fill="white"/>
<path d="M164.19 363.52L176.14 363.29L188.14 363.16L212.04 363.05L235.94 363.16C243.94 363.24 251.88 363.33 259.85 363.52V363.58C251.85 363.77 243.91 363.86 235.94 363.94L212.04 364.05L188.14 363.94L176.14 363.8L164.19 363.58V363.52Z" fill="#263238"/>
<path d="M167.5 367.64L168.19 366.91L164.57 363.55L168.19 360.19L167.5 359.46L163.11 363.55L167.5 367.64Z" fill="#263238"/>
<path d="M256.5 367.64L255.81 366.91L259.43 363.55L255.81 360.19L256.5 359.46L260.89 363.55L256.5 367.64Z" fill="#263238"/>
<path d="M100.59 32.2L128.44 31.96L156.29 31.83L212 31.71L267.7 31.83L295.56 31.96L323.41 32.2V32.22L295.56 32.46L267.7 32.6L212 32.71L156.29 32.6L128.44 32.46L100.59 32.22V32.2Z" fill="#263238"/>
<path d="M103.9 36.3L104.59 35.57L100.97 32.21L104.59 28.86L103.9 28.12L99.5 32.21L103.9 36.3Z" fill="#263238"/>
<path d="M320.1 36.3L319.42 35.57L323.03 32.21L319.42 28.86L320.1 28.12L324.5 32.21L320.1 36.3Z" fill="#263238"/>
<path d="M140.51 354.45C140.32 347.25 140.23 340.04 140.15 332.83L140 311.2L140.11 289.58C140.19 282.37 140.28 275.16 140.47 267.95H140.53C140.72 275.16 140.81 282.37 140.89 289.58L141 311.2L140.89 332.83C140.81 340.04 140.72 347.25 140.53 354.45H140.51Z" fill="#263238"/>
<path d="M144.63 351.14L143.9 350.46L140.54 354.07L137.18 350.46L136.45 351.14L140.54 355.54L144.63 351.14Z" fill="#263238"/>
<path d="M144.63 271.27L143.9 271.95L140.54 268.34L137.18 271.95L136.45 271.27L140.54 266.87L144.63 271.27Z" fill="#263238"/>
<path d="M330.83 354.45L330.59 316.17L330.5 277.88L330.34 201.3L330.5 124.72L330.59 86.44L330.83 48.15H330.84L331.09 86.44L331.17 124.72L331.33 201.3L331.17 277.88L331.08 316.17L330.84 354.45H330.83Z" fill="#263238"/>
<path d="M334.93 351.14L334.19 350.46L330.84 354.07L327.48 350.46L326.75 351.14L330.84 355.54L334.93 351.14Z" fill="#263238"/>
<path d="M334.93 51.46L334.19 52.14L330.84 48.53L327.48 52.14L326.75 51.46L330.84 47.06L334.93 51.46Z" fill="#263238"/>
<path d="M184.65 266.87C179.46 267.07 174.27 267.17 169.08 267.25C163.89 267.33 158.7 267.33 153.51 267.37C148.32 267.41 143.12 267.37 137.93 267.25L130.15 267.11C127.55 267.03 124.96 266.98 122.36 266.87C124.96 266.75 127.55 266.71 130.15 266.62L137.93 266.48C143.12 266.4 148.32 266.41 153.51 266.37C158.7 266.33 163.89 266.37 169.08 266.49C174.27 266.61 179.46 266.66 184.65 266.87Z" fill="#263238"/>
<path d="M203.85 355.54C197.06 355.75 190.27 355.84 183.48 355.92C176.69 356 169.9 356 163.11 356.04L142.73 355.92L132.55 355.78C129.15 355.7 125.76 355.65 122.36 355.54C125.76 355.43 129.15 355.38 132.55 355.29L142.73 355.15L163.11 355.04C169.9 355.04 176.69 355.04 183.48 355.16C190.27 355.28 197.06 355.33 203.85 355.54Z" fill="#263238"/>
<path d="M163.11 266.87C163.31 276.08 163.41 285.3 163.49 294.51L163.61 322.16L163.49 349.8L163.35 363.63L163.11 377.45L162.86 363.63L162.72 349.8L162.61 322.16L162.72 294.51C162.8 285.3 162.9 276.08 163.11 266.87Z" fill="#263238"/>
<path d="M260.89 266.87C261.1 276.08 261.2 285.3 261.28 294.51L261.39 322.16L261.28 349.8L261.14 363.63L260.89 377.45L260.65 363.63L260.51 349.8L260.39 322.16L260.51 294.51C260.59 285.3 260.69 276.08 260.89 266.87Z" fill="#263238"/>
<path d="M217 355.54C228.14 355.33 239.28 355.24 250.42 355.16L283.85 355.04L317.27 355.15L333.99 355.29L350.7 355.54L333.99 355.78L317.27 355.92L283.85 356.04L250.42 355.92C239.31 355.84 228.17 355.75 217 355.54Z" fill="#263238"/>
<path d="M217 47.06C228.14 46.86 239.28 46.76 250.42 46.68L283.85 46.57L317.27 46.68L333.99 46.82L350.7 47.06L333.99 47.31L317.27 47.45L283.85 47.56L250.42 47.45C239.31 47.37 228.17 47.27 217 47.06Z" fill="#263238"/>
<path d="M99.5 355.54L99.26 313.77L99.17 272.01L99.01 188.47L99.17 104.94L99.26 63.17L99.5 21.41L99.75 63.17L99.84 104.94L100 188.47L99.84 272.01L99.75 313.77L99.5 355.54Z" fill="#263238"/>
<path d="M324.5 355.54L324.25 313.77L324.16 272.01L324 188.47L324.16 104.94L324.25 63.17L324.5 21.41L324.74 63.17L324.83 104.94L324.99 188.47L324.83 272.01L324.74 313.77L324.5 355.54Z" fill="#263238"/>
</svg>
