<svg width="497" height="447" viewBox="0 0 497 447" fill="none" xmlns="http://www.w3.org/2000/svg">
<path d="M403.76 312.68L409.26 303.8L406.55 302.12C406.16 301.875 405.845 301.526 405.64 301.114C405.435 300.701 405.349 300.239 405.39 299.78C405.442 299.262 405.458 298.741 405.44 298.22C405.426 297.761 405.541 297.308 405.77 296.91C406 296.513 406.336 296.187 406.74 295.97L409.56 294.46L404.62 285.25L401.8 286.76C401.396 286.976 400.94 287.076 400.482 287.048C400.025 287.019 399.584 286.864 399.21 286.6C398.782 286.299 398.338 286.022 397.88 285.77C397.475 285.552 397.139 285.227 396.908 284.83C396.676 284.433 396.559 283.979 396.57 283.52L396.67 280.33L386.24 280L386.14 283.21C386.12 283.67 385.973 284.115 385.715 284.496C385.458 284.878 385.099 285.18 384.68 285.37C384.45 285.48 384.22 285.59 384 285.72C383.78 285.85 383.55 285.96 383.33 286.1C382.941 286.34 382.492 286.467 382.035 286.467C381.578 286.467 381.129 286.34 380.74 286.1L378 284.42L372.49 293.29L375.22 294.98C375.609 295.226 375.923 295.574 376.126 295.987C376.329 296.401 376.413 296.862 376.37 297.32C376.323 297.839 376.307 298.359 376.32 298.88C376.331 299.338 376.216 299.791 375.987 300.188C375.757 300.585 375.423 300.911 375.02 301.13L372.2 302.64L377.14 311.84L379.96 310.33C380.365 310.115 380.822 310.017 381.279 310.047C381.737 310.077 382.177 310.234 382.55 310.5C382.976 310.796 383.416 311.069 383.87 311.32C384.276 311.536 384.614 311.861 384.846 312.258C385.077 312.656 385.193 313.11 385.18 313.57L385.08 316.77L395.52 317.09L395.62 313.89C395.641 313.433 395.787 312.991 396.043 312.611C396.299 312.232 396.654 311.931 397.07 311.74L397.77 311.39L398.43 311.01C398.822 310.767 399.274 310.639 399.735 310.639C400.196 310.639 400.648 310.767 401.04 311.01L403.76 312.68ZM394.92 306.09C393.429 306.888 391.736 307.226 390.053 307.061C388.37 306.896 386.774 306.237 385.467 305.165C384.159 304.094 383.198 302.658 382.706 301.041C382.214 299.423 382.212 297.696 382.701 296.078C383.19 294.46 384.148 293.023 385.454 291.949C386.76 290.875 388.355 290.212 390.037 290.044C391.719 289.876 393.414 290.211 394.906 291.006C396.398 291.801 397.621 293.02 398.42 294.51C398.952 295.5 399.284 296.585 399.396 297.703C399.509 298.821 399.399 299.951 399.074 301.027C398.749 302.102 398.214 303.103 397.502 303.972C396.789 304.841 395.912 305.561 394.92 306.09Z" fill="#DBDBDB"/>
<path d="M130.83 59.92C125.195 59.92 119.687 61.5909 115.002 64.7214C110.317 67.852 106.665 72.3015 104.509 77.5074C102.352 82.7132 101.788 88.4416 102.887 93.9681C103.987 99.4947 106.7 104.571 110.685 108.555C114.669 112.54 119.745 115.253 125.272 116.353C130.798 117.452 136.527 116.888 141.733 114.731C146.939 112.575 151.388 108.923 154.519 104.238C157.649 99.5531 159.32 94.0448 159.32 88.41C159.321 84.6683 158.585 80.963 157.154 77.5058C155.723 74.0486 153.624 70.9074 150.978 68.2616C148.333 65.6158 145.191 63.5173 141.734 62.086C138.277 60.6547 134.572 59.9187 130.83 59.92ZM130.83 101.71C128.197 101.71 125.623 100.929 123.434 99.4662C121.245 98.0032 119.539 95.9239 118.532 93.4912C117.525 91.0586 117.262 88.3818 117.776 85.7997C118.291 83.2175 119.56 80.8459 121.422 78.9849C123.284 77.1238 125.657 75.857 128.239 75.3445C130.822 74.8321 133.499 75.0971 135.93 76.1061C138.362 77.115 140.44 78.8225 141.902 81.0127C143.363 83.2028 144.142 85.7771 144.14 88.41C144.14 90.1574 143.796 91.8877 143.127 93.502C142.458 95.1163 141.477 96.5829 140.241 97.8181C139.005 99.0532 137.538 100.033 135.923 100.7C134.308 101.368 132.577 101.711 130.83 101.71Z" fill="#EBEBEB"/>
<path d="M136.31 61.1H125.35L125.96 53.34H135.7L136.31 61.1Z" fill="#EBEBEB"/>
<path d="M115.45 64.79L107.71 72.54L102.65 66.63L109.54 59.74L115.45 64.79Z" fill="#EBEBEB"/>
<path d="M103.32 82.15V93.11L95.56 92.5V82.76L103.32 82.15Z" fill="#EBEBEB"/>
<path d="M107.01 103L114.76 110.75L108.84 115.81L101.95 108.92L107.01 103Z" fill="#EBEBEB"/>
<path d="M124.37 115.14H135.32L134.72 122.9H124.97L124.37 115.14Z" fill="#EBEBEB"/>
<path d="M145.22 111.45L152.97 103.7L158.03 109.62L151.13 116.51L145.22 111.45Z" fill="#EBEBEB"/>
<path d="M157.36 94.09V83.14L165.11 83.74V93.49L157.36 94.09Z" fill="#EBEBEB"/>
<path d="M153.67 73.24L145.92 65.49L151.83 60.43L158.72 67.33L153.67 73.24Z" fill="#EBEBEB"/>
<path d="M391.37 84.59H389.87V83.59H390.37V83.09H391.37V84.59Z" fill="#EBEBEB"/>
<path d="M387.87 84.59H385.87V83.59H387.87V84.59ZM383.87 84.59H381.87V83.59H383.87V84.59ZM379.87 84.59H377.87V83.59H379.87V84.59ZM375.87 84.59H373.87V83.59H375.87V84.59ZM371.87 84.59H369.87V83.59H371.87V84.59ZM367.87 84.59H365.87V83.59H367.87V84.59ZM363.87 84.59H361.87V83.59H363.87V84.59ZM359.87 84.59H357.87V83.59H359.87V84.59ZM355.87 84.59H353.87V83.59H355.87V84.59ZM351.87 84.59H349.87V83.59H351.87V84.59ZM347.87 84.59H345.87V83.59H347.87V84.59ZM343.87 84.59H341.87V83.59H343.87V84.59ZM339.87 84.59H337.87V83.59H339.87V84.59ZM335.87 84.59H333.87V83.59H335.87V84.59ZM331.87 84.59H329.87V83.59H331.87V84.59ZM327.87 84.59H325.87V83.59H327.87V84.59ZM323.87 84.59H321.87V83.59H323.87V84.59Z" fill="#EBEBEB"/>
<path d="M319.92 84.59H318.42V83.09H319.42V83.59H319.92V84.59Z" fill="#EBEBEB"/>
<path d="M319.42 81.09H318.42V79.09H319.42V81.09ZM319.42 77.09H318.42V75.09H319.42V77.09ZM319.42 73.09H318.42V71.09H319.42V73.09ZM319.42 69.09H318.42V67.09H319.42V69.09ZM319.42 65.09H318.42V63.09H319.42V65.09ZM319.42 61.09H318.42V59.09H319.42V61.09ZM319.42 57.09H318.42V55.09H319.42V57.09ZM319.42 53.09H318.42V51.09H319.42V53.09ZM319.42 49.09H318.42V47.09H319.42V49.09ZM319.42 45.09H318.42V43.09H319.42V45.09ZM319.42 41.09H318.42V39.09H319.42V41.09ZM319.42 37.09H318.42V35.09H319.42V37.09ZM319.42 33.09H318.42V31.09H319.42V33.09ZM319.42 29.09H318.42V27.09H319.42V29.09ZM319.42 25.09H318.42V23.09H319.42V25.09ZM319.42 21.09H318.42V19.09H319.42V21.09ZM319.42 17.09H318.42V15.09H319.42V17.09Z" fill="#EBEBEB"/>
<path d="M319.42 13.15H318.42V11.65H319.92V12.65H319.42V13.15Z" fill="#EBEBEB"/>
<path d="M387.87 12.65H385.87V11.65H387.87V12.65ZM383.87 12.65H381.87V11.65H383.87V12.65ZM379.87 12.65H377.87V11.65H379.87V12.65ZM375.87 12.65H373.87V11.65H375.87V12.65ZM371.87 12.65H369.87V11.65H371.87V12.65ZM367.87 12.65H365.87V11.65H367.87V12.65ZM363.87 12.65H361.87V11.65H363.87V12.65ZM359.87 12.65H357.87V11.65H359.87V12.65ZM355.87 12.65H353.87V11.65H355.87V12.65ZM351.87 12.65H349.87V11.65H351.87V12.65ZM347.87 12.65H345.87V11.65H347.87V12.65ZM343.87 12.65H341.87V11.65H343.87V12.65ZM339.87 12.65H337.87V11.65H339.87V12.65ZM335.87 12.65H333.87V11.65H335.87V12.65ZM331.87 12.65H329.87V11.65H331.87V12.65ZM327.87 12.65H325.87V11.65H327.87V12.65ZM323.87 12.65H321.87V11.65H323.87V12.65Z" fill="#EBEBEB"/>
<path d="M391.37 13.15H390.37V12.65H389.87V11.65H391.37V13.15Z" fill="#EBEBEB"/>
<path d="M391.36 81.09H390.36V79.09H391.36V81.09ZM391.36 77.09H390.36V75.09H391.36V77.09ZM391.36 73.09H390.36V71.09H391.36V73.09ZM391.36 69.09H390.36V67.09H391.36V69.09ZM391.36 65.09H390.36V63.09H391.36V65.09ZM391.36 61.09H390.36V59.09H391.36V61.09ZM391.36 57.09H390.36V55.09H391.36V57.09ZM391.36 53.09H390.36V51.09H391.36V53.09ZM391.36 49.09H390.36V47.09H391.36V49.09ZM391.36 45.09H390.36V43.09H391.36V45.09ZM391.36 41.09H390.36V39.09H391.36V41.09ZM391.36 37.09H390.36V35.09H391.36V37.09ZM391.36 33.09H390.36V31.09H391.36V33.09ZM391.36 29.09H390.36V27.09H391.36V29.09ZM391.36 25.09H390.36V23.09H391.36V25.09ZM391.36 21.09H390.36V19.09H391.36V21.09ZM391.36 17.09H390.36V15.09H391.36V17.09Z" fill="#EBEBEB"/>
<path d="M323.41 79.61H314.44V88.58H323.41V79.61Z" fill="white"/>
<path d="M323.9 89.07H313.9V79.07H323.9V89.07ZM314.9 88.07H322.9V80.07H314.9V88.07Z" fill="#EBEBEB"/>
<path d="M323.45 43.64H314.48V52.61H323.45V43.64Z" fill="white"/>
<path d="M323.9 53.1H313.9V43.1H323.9V53.1ZM314.9 52.1H322.9V44.1H314.9V52.1Z" fill="#EBEBEB"/>
<path d="M323.45 7.66H314.48V16.63H323.45V7.66Z" fill="white"/>
<path d="M323.9 17.13H313.9V7.13H323.9V17.13ZM314.9 16.13H322.9V8.13H314.9V16.13Z" fill="#EBEBEB"/>
<path d="M395.39 79.61H386.42V88.58H395.39V79.61Z" fill="white"/>
<path d="M395.85 89.07H385.85V79.07H395.85V89.07ZM386.85 88.07H394.85V80.07H386.85V88.07Z" fill="#EBEBEB"/>
<path d="M395.39 43.64H386.42V52.61H395.39V43.64Z" fill="white"/>
<path d="M395.85 53.1H385.85V43.1H395.85V53.1ZM386.85 52.1H394.85V44.1H386.85V52.1Z" fill="#EBEBEB"/>
<path d="M395.39 7.66H386.42V16.63H395.39V7.66Z" fill="white"/>
<path d="M395.85 17.13H385.85V7.13H395.85V17.13ZM386.85 16.13H394.85V8.13H386.85V16.13Z" fill="#EBEBEB"/>
<path d="M359.42 7.66H350.45V16.63H359.42V7.66Z" fill="white"/>
<path d="M359.88 17.13H349.88V7.13H359.88V17.13ZM350.88 16.13H358.88V8.13H350.88V16.13Z" fill="#EBEBEB"/>
<path d="M359.38 79.61H350.41V88.58H359.38V79.61Z" fill="white"/>
<path d="M359.88 89.07H349.88V79.07H359.88V89.07ZM350.88 88.07H358.88V80.07H350.88V88.07Z" fill="#EBEBEB"/>
<path d="M167.3 351.18H165.8V350.18H166.3V349.68H167.3V351.18Z" fill="#EBEBEB"/>
<path d="M163.81 351.18H161.81V350.18H163.81V351.18ZM159.81 351.18H157.81V350.18H159.81V351.18ZM155.81 351.18H153.81V350.18H155.81V351.18ZM151.81 351.18H149.81V350.18H151.81V351.18ZM147.81 351.18H145.81V350.18H147.81V351.18ZM143.81 351.18H141.81V350.18H143.81V351.18ZM139.81 351.18H137.81V350.18H139.81V351.18ZM135.81 351.18H133.81V350.18H135.81V351.18ZM131.81 351.18H129.81V350.18H131.81V351.18ZM127.81 351.18H125.81V350.18H127.81V351.18ZM123.81 351.18H121.81V350.18H123.81V351.18ZM119.81 351.18H117.81V350.18H119.81V351.18ZM115.81 351.18H113.81V350.18H115.81V351.18ZM111.81 351.18H109.81V350.18H111.81V351.18ZM107.81 351.18H105.81V350.18H107.81V351.18ZM103.81 351.18H101.81V350.18H103.81V351.18ZM99.81 351.18H97.81V350.18H99.81V351.18Z" fill="#EBEBEB"/>
<path d="M95.86 351.18H94.36V349.68H95.36V350.18H95.86V351.18Z" fill="#EBEBEB"/>
<path d="M95.36 347.68H94.36V345.68H95.36V347.68ZM95.36 343.68H94.36V341.68H95.36V343.68ZM95.36 339.68H94.36V337.68H95.36V339.68ZM95.36 335.68H94.36V333.68H95.36V335.68ZM95.36 331.68H94.36V329.68H95.36V331.68ZM95.36 327.68H94.36V325.68H95.36V327.68ZM95.36 323.68H94.36V321.68H95.36V323.68ZM95.36 319.68H94.36V317.68H95.36V319.68ZM95.36 315.68H94.36V313.68H95.36V315.68ZM95.36 311.68H94.36V309.68H95.36V311.68ZM95.36 307.68H94.36V305.68H95.36V307.68ZM95.36 303.68H94.36V301.68H95.36V303.68ZM95.36 299.68H94.36V297.68H95.36V299.68ZM95.36 295.68H94.36V293.68H95.36V295.68ZM95.36 291.68H94.36V289.68H95.36V291.68ZM95.36 287.68H94.36V285.68H95.36V287.68ZM95.36 283.68H94.36V281.68H95.36V283.68Z" fill="#EBEBEB"/>
<path d="M95.36 279.73H94.36V278.23H95.86V279.23H95.36V279.73Z" fill="#EBEBEB"/>
<path d="M163.81 279.23H161.81V278.23H163.81V279.23ZM159.81 279.23H157.81V278.23H159.81V279.23ZM155.81 279.23H153.81V278.23H155.81V279.23ZM151.81 279.23H149.81V278.23H151.81V279.23ZM147.81 279.23H145.81V278.23H147.81V279.23ZM143.81 279.23H141.81V278.23H143.81V279.23ZM139.81 279.23H137.81V278.23H139.81V279.23ZM135.81 279.23H133.81V278.23H135.81V279.23ZM131.81 279.23H129.81V278.23H131.81V279.23ZM127.81 279.23H125.81V278.23H127.81V279.23ZM123.81 279.23H121.81V278.23H123.81V279.23ZM119.81 279.23H117.81V278.23H119.81V279.23ZM115.81 279.23H113.81V278.23H115.81V279.23ZM111.81 279.23H109.81V278.23H111.81V279.23ZM107.81 279.23H105.81V278.23H107.81V279.23ZM103.81 279.23H101.81V278.23H103.81V279.23ZM99.81 279.23H97.81V278.23H99.81V279.23Z" fill="#EBEBEB"/>
<path d="M167.3 279.73H166.3V279.23H165.8V278.23H167.3V279.73Z" fill="#EBEBEB"/>
<path d="M167.3 347.68H166.3V345.68H167.3V347.68ZM167.3 343.68H166.3V341.68H167.3V343.68ZM167.3 339.68H166.3V337.68H167.3V339.68ZM167.3 335.68H166.3V333.68H167.3V335.68ZM167.3 331.68H166.3V329.68H167.3V331.68ZM167.3 327.68H166.3V325.68H167.3V327.68ZM167.3 323.68H166.3V321.68H167.3V323.68ZM167.3 319.68H166.3V317.68H167.3V319.68ZM167.3 315.68H166.3V313.68H167.3V315.68ZM167.3 311.68H166.3V309.68H167.3V311.68ZM167.3 307.68H166.3V305.68H167.3V307.68ZM167.3 303.68H166.3V301.68H167.3V303.68ZM167.3 299.68H166.3V297.68H167.3V299.68ZM167.3 295.68H166.3V293.68H167.3V295.68ZM167.3 291.68H166.3V289.68H167.3V291.68ZM167.3 287.68H166.3V285.68H167.3V287.68ZM167.3 283.68H166.3V281.68H167.3V283.68Z" fill="#EBEBEB"/>
<path d="M99.35 346.19H90.38V355.16H99.35V346.19Z" fill="white"/>
<path d="M99.84 355.66H89.84V345.66H99.84V355.66ZM90.84 354.66H98.84V346.66H90.84V354.66Z" fill="#EBEBEB"/>
<path d="M99.38 310.22H90.41V319.19H99.38V310.22Z" fill="white"/>
<path d="M99.84 319.69H89.84V309.69H99.84V319.69ZM90.84 318.69H98.84V310.69H90.84V318.69Z" fill="#EBEBEB"/>
<path d="M99.38 274.25H90.41V283.22H99.38V274.25Z" fill="white"/>
<path d="M99.84 283.71H89.84V273.71H99.84V283.71ZM90.84 282.71H98.84V274.71H90.84V282.71Z" fill="#EBEBEB"/>
<path d="M171.33 346.19H162.36V355.16H171.33V346.19Z" fill="white"/>
<path d="M171.79 355.66H161.79V345.66H171.79V355.66ZM162.79 354.66H170.79V346.66H162.79V354.66Z" fill="#EBEBEB"/>
<path d="M171.33 310.22H162.36V319.19H171.33V310.22Z" fill="white"/>
<path d="M171.79 319.69H161.79V309.69H171.79V319.69ZM162.79 318.69H170.79V310.69H162.79V318.69Z" fill="#EBEBEB"/>
<path d="M171.33 274.25H162.36V283.22H171.33V274.25Z" fill="white"/>
<path d="M171.79 283.71H161.79V273.71H171.79V283.71ZM162.79 282.71H170.79V274.71H162.79V282.71Z" fill="#EBEBEB"/>
<path d="M135.36 274.25H126.39V283.22H135.36V274.25Z" fill="white"/>
<path d="M135.81 283.71H125.81V273.71H135.81V283.71ZM126.81 282.71H134.81V274.71H126.81V282.71Z" fill="#EBEBEB"/>
<path d="M135.32 346.19H126.35V355.16H135.32V346.19Z" fill="white"/>
<path d="M135.81 355.66H125.81V345.66H135.81V355.66ZM126.81 354.66H134.81V346.66H126.81V354.66Z" fill="#EBEBEB"/>
<path d="M338.89 37.78H169.83C167.563 37.8009 165.323 38.2681 163.237 39.1549C161.151 40.0416 159.26 41.3306 157.672 42.9483C156.084 44.5659 154.83 46.4804 153.982 48.5826C153.134 50.6848 152.709 52.9334 152.73 55.2V403.2C152.69 407.777 154.469 412.182 157.675 415.449C160.881 418.715 165.253 420.575 169.83 420.62H338.89C343.465 420.572 347.835 418.713 351.042 415.45C354.249 412.187 356.032 407.785 356 403.21V55.2C356.037 50.6222 354.257 46.2166 351.049 42.9506C347.841 39.6845 343.468 37.8249 338.89 37.78ZM345.31 392.45C345.31 401.61 338.45 409.02 329.99 409.02H178.75C170.27 409.02 163.41 401.61 163.41 392.45V68.39C163.41 49.73 170.27 48.82 178.75 48.82H209.05C210.81 48.82 212.25 50.82 212.25 53.3V54.37C212.25 60.18 215.43 60.2 219.33 60.2H289.39C293.33 60.2 296.49 60.2 296.49 54.37V53.3C296.49 50.82 297.91 48.82 299.7 48.82H330C338.46 48.82 345.32 51.3 345.32 68.39L345.31 392.45Z" fill="#263238"/>
<path d="M345.31 68.39V392.45C345.31 401.61 338.45 409.02 329.99 409.02H178.75C170.27 409.02 163.41 401.61 163.41 392.45V68.39C163.41 49.73 170.27 48.82 178.75 48.82H209.05C210.81 48.82 212.25 50.82 212.25 53.3V54.37C212.25 60.18 215.43 60.2 219.33 60.2H289.39C293.33 60.2 296.49 60.2 296.49 54.37V53.3C296.49 50.82 297.91 48.82 299.7 48.82H330C338.45 48.82 345.31 51.3 345.31 68.39Z" fill="white"/>
<path d="M345.31 68.39V93.89H163.41V68.39C163.41 49.73 170.27 48.82 178.75 48.82H209.05C210.81 48.82 212.25 50.82 212.25 53.3V54.37C212.25 60.18 215.43 60.2 219.33 60.2H289.39C293.33 60.2 296.49 60.2 296.49 54.37V53.3C296.49 50.82 297.91 48.82 299.7 48.82H330C338.45 48.82 345.31 51.3 345.31 68.39Z" fill="#7F5BEB"/>
<path d="M336.57 181.74H260.83V257.48H336.57V181.74Z" fill="white"/>
<path d="M336.94 257.85H334.57V257.1H336.19V255.48H336.94V257.85Z" fill="#7F5BEB"/>
<path d="M331.62 257.85H327.69V257.1H331.62V257.85ZM324.74 257.85H320.81V257.1H324.74V257.85ZM317.86 257.85H313.93V257.1H317.86V257.85ZM310.98 257.85H307.05V257.1H311L310.98 257.85ZM304.1 257.85H300.17V257.1H304.1V257.85ZM297.22 257.85H293.29V257.1H297.22V257.85ZM290.34 257.85H286.41V257.1H290.34V257.85ZM283.46 257.85H279.53V257.1H283.46V257.85ZM276.58 257.85H272.65V257.1H276.58V257.85ZM269.71 257.85H265.77V257.1H269.71V257.85Z" fill="#7F5BEB"/>
<path d="M262.83 257.85H260.45V255.48H261.2V257.1H262.83V257.85Z" fill="#7F5BEB"/>
<path d="M261.2 252.53H260.45V248.6H261.2V252.53ZM261.2 245.65H260.45V241.72H261.2V245.65ZM261.2 238.77H260.45V234.84H261.2V238.77ZM261.2 231.89H260.45V228H261.2V231.89ZM261.2 225.01H260.45V221.08H261.2V225.01ZM261.2 218.13H260.45V214.2H261.2V218.13ZM261.2 211.25H260.45V207.32H261.2V211.25ZM261.2 204.37H260.45V200.44H261.2V204.37ZM261.2 197.49H260.45V193.56H261.2V197.49ZM261.2 190.62H260.45V186.68H261.2V190.62Z" fill="#7F5BEB"/>
<path d="M261.2 183.74H260.45V181.36H262.83V182.11H261.2V183.74Z" fill="#7F5BEB"/>
<path d="M331.62 182.11H327.69V181.36H331.62V182.11ZM324.74 182.11H320.81V181.36H324.74V182.11ZM317.86 182.11H313.93V181.36H317.86V182.11ZM310.98 182.11H307.05V181.36H311L310.98 182.11ZM304.1 182.11H300.17V181.36H304.1V182.11ZM297.22 182.11H293.29V181.36H297.22V182.11ZM290.34 182.11H286.41V181.36H290.34V182.11ZM283.46 182.11H279.53V181.36H283.46V182.11ZM276.58 182.11H272.65V181.36H276.58V182.11ZM269.71 182.11H265.77V181.36H269.71V182.11Z" fill="#7F5BEB"/>
<path d="M336.94 183.74H336.19V182.11H334.57V181.36H336.94V183.74Z" fill="#7F5BEB"/>
<path d="M336.94 252.53H336.19V248.6H336.94V252.53ZM336.94 245.65H336.19V241.72H336.94V245.65ZM336.94 238.77H336.19V234.84H336.94V238.77ZM336.94 231.89H336.19V228H336.94V231.89ZM336.94 225.01H336.19V221.08H336.94V225.01ZM336.94 218.13H336.19V214.2H336.94V218.13ZM336.94 211.25H336.19V207.32H336.94V211.25ZM336.94 204.37H336.19V200.44H336.94V204.37ZM336.94 197.49H336.19V193.56H336.94V197.49ZM336.94 190.62H336.19V186.68H336.94V190.62Z" fill="#7F5BEB"/>
<path d="M268.06 250.24H329.33V188.97H268.06V250.24Z" fill="#7F5BEB"/>
<path opacity="0.1" d="M276.82 203.18C276.586 204.352 276.735 205.569 277.245 206.65C277.755 207.731 278.6 208.619 279.654 209.183C280.708 209.747 281.915 209.957 283.098 209.782C284.28 209.607 285.375 209.056 286.221 208.211C287.066 207.365 287.617 206.27 287.792 205.088C287.967 203.905 287.757 202.698 287.193 201.644C286.629 200.59 285.741 199.745 284.66 199.235C283.579 198.725 282.362 198.576 281.19 198.81C280.112 199.027 279.122 199.557 278.345 200.335C277.567 201.112 277.037 202.102 276.82 203.18Z" fill="black"/>
<g opacity="0.2">
<path d="M288.28 233.25H329.33L308.8 207.95L288.28 233.25Z" fill="black"/>
</g>
<path d="M268.06 233.28H304.47L286.27 216.8L268.06 233.28Z" fill="#7F5BEB"/>
<g opacity="0.1">
<path d="M268.06 233.28H304.47L286.27 216.8L268.06 233.28Z" fill="black"/>
</g>
<path d="M329.33 233.28H268.06V250.24H329.33V233.28Z" fill="#7F5BEB"/>
<g opacity="0.1">
<path d="M329.33 233.28H268.06V250.24H329.33V233.28Z" fill="black"/>
</g>
<path d="M335.72 106.2H172.3V173.78H335.72V106.2Z" fill="white"/>
<path d="M336.09 174.16H333.71V173.41H335.34V171.78H336.09V174.16Z" fill="#7F5BEB"/>
<path d="M330.67 174.16H326.6V173.41H330.67V174.16ZM323.56 174.16H319.5V173.41H323.56V174.16ZM316.45 174.16H312.39V173.41H316.45V174.16ZM309.34 174.16H305.28V173.41H309.34V174.16ZM302.24 174.16H298.17V173.41H302.24V174.16ZM295.13 174.16H291.07V173.41H295.13V174.16ZM288.02 174.16H284V173.41H288L288.02 174.16ZM280.91 174.16H276.85V173.41H280.91V174.16ZM273.8 174.16H269.74V173.41H273.8V174.16ZM266.7 174.16H262.63V173.41H266.7V174.16ZM259.59 174.16H255.53V173.41H259.59V174.16ZM252.48 174.16H248.42V173.41H252.48V174.16ZM245.37 174.16H241.31V173.41H245.37V174.16ZM238.27 174.16H234.2V173.41H238.27V174.16ZM231.16 174.16H227.1V173.41H231.16V174.16ZM224.05 174.16H220V173.41H224.06L224.05 174.16ZM216.94 174.16H212.88V173.41H216.94V174.16ZM209.83 174.16H205.77V173.41H209.83V174.16ZM202.73 174.16H198.67V173.41H202.73V174.16ZM195.62 174.16H191.56V173.41H195.62V174.16ZM188.51 174.16H184.45V173.41H188.51V174.16ZM181.4 174.16H177.34V173.41H181.4V174.16Z" fill="#7F5BEB"/>
<path d="M174.3 174.16H171.92V171.78H172.67V173.41H174.3V174.16Z" fill="#7F5BEB"/>
<path d="M172.67 168.89H171.92V165H172.67V168.89ZM172.67 162.15H171.92V158.3H172.67V162.15ZM172.67 155.41H171.92V151.55H172.67V155.41ZM172.67 148.66H171.92V144.81H172.67V148.66ZM172.67 141.92H171.92V138.06H172.67V141.92ZM172.67 135.17H171.92V131.32H172.67V135.17ZM172.67 128.43H171.92V124.58H172.67V128.43ZM172.67 121.69H171.92V117.83H172.67V121.69ZM172.67 114.94H171.92V111.09H172.67V114.94Z" fill="#7F5BEB"/>
<path d="M172.67 108.2H171.92V105.82H174.3V106.57H172.67V108.2Z" fill="#7F5BEB"/>
<path d="M330.67 106.57H326.6V105.82H330.67V106.57ZM323.56 106.57H319.5V105.82H323.56V106.57ZM316.45 106.57H312.39V105.82H316.45V106.57ZM309.34 106.57H305.28V105.82H309.34V106.57ZM302.23 106.57H298.17V105.82H302.23V106.57ZM295.13 106.57H291.07V105.82H295.13V106.57ZM288.02 106.57H284V105.82H288L288.02 106.57ZM280.91 106.57H276.85V105.82H280.91V106.57ZM273.8 106.57H269.74V105.82H273.8V106.57ZM266.7 106.57H262.63V105.82H266.7V106.57ZM259.59 106.57H255.53V105.82H259.59V106.57ZM252.48 106.57H248.42V105.82H252.48V106.57ZM245.37 106.57H241.31V105.82H245.37V106.57ZM238.26 106.57H234.2V105.82H238.26V106.57ZM231.16 106.57H227.1V105.82H231.16V106.57ZM224.05 106.57H220V105.82H224.06L224.05 106.57ZM216.94 106.57H212.88V105.82H216.94V106.57ZM209.83 106.57H205.77V105.82H209.83V106.57ZM202.73 106.57H198.66V105.82H202.73V106.57ZM195.62 106.57H191.56V105.82H195.62V106.57ZM188.51 106.57H184.45V105.82H188.51V106.57ZM181.4 106.57H177.34V105.82H181.4V106.57Z" fill="#7F5BEB"/>
<path d="M336.09 108.2H335.34V106.57H333.71V105.82H336.09V108.2Z" fill="#7F5BEB"/>
<path d="M336.09 168.89H335.34V165H336.09V168.89ZM336.09 162.15H335.34V158.3H336.09V162.15ZM336.09 155.41H335.34V151.55H336.09V155.41ZM336.09 148.66H335.34V144.81H336.09V148.66ZM336.09 141.92H335.34V138.06H336.09V141.92ZM336.09 135.17H335.34V131.32H336.09V135.17ZM336.09 128.43H335.34V124.58H336.09V128.43ZM336.09 121.69H335.34V117.83H336.09V121.69ZM336.09 114.94H335.34V111.09H336.09V114.94Z" fill="#7F5BEB"/>
<path d="M181.23 163.72H228.7V116.25H181.23V163.72Z" fill="#7F5BEB"/>
<path opacity="0.1" d="M188 127.27C187.82 128.177 187.937 129.117 188.333 129.953C188.728 130.788 189.382 131.474 190.197 131.91C191.013 132.345 191.947 132.507 192.861 132.371C193.775 132.235 194.622 131.809 195.275 131.155C195.929 130.502 196.355 129.655 196.491 128.741C196.627 127.827 196.465 126.893 196.03 126.077C195.594 125.262 194.908 124.608 194.073 124.213C193.237 123.817 192.297 123.7 191.39 123.88C190.553 124.047 189.785 124.458 189.182 125.062C188.578 125.665 188.167 126.433 188 127.27Z" fill="black"/>
<g opacity="0.2">
<path d="M196.89 150.57H228.7L212.79 130.96L196.89 150.57Z" fill="black"/>
</g>
<path d="M181.23 150.58H209.44L195.33 137.82L181.23 150.58Z" fill="#7F5BEB"/>
<g opacity="0.1">
<path d="M181.23 150.58H209.44L195.33 137.82L181.23 150.58Z" fill="black"/>
</g>
<path d="M228.7 150.58H181.23V163.72H228.7V150.58Z" fill="#7F5BEB"/>
<g opacity="0.1">
<path d="M228.7 150.58H181.23V163.72H228.7V150.58Z" fill="black"/>
</g>
<path d="M325.88 116.42H235.05V118.08H325.88V116.42Z" fill="#EBEBEB"/>
<path d="M325.88 125.48H235.05V127.14H325.88V125.48Z" fill="#EBEBEB"/>
<path d="M325.88 130.3H235.05V131.96H325.88V130.3Z" fill="#EBEBEB"/>
<path d="M325.88 135.12H235.05V136.78H325.88V135.12Z" fill="#EBEBEB"/>
<path d="M325.88 144.76H235.05V146.42H325.88V144.76Z" fill="#EBEBEB"/>
<path d="M325.88 149.58H235.05V151.24H325.88V149.58Z" fill="#EBEBEB"/>
<path d="M325.88 154.4H235.05V156.06H325.88V154.4Z" fill="#EBEBEB"/>
<path d="M285.7 159.23H235.05V160.89H285.7V159.23Z" fill="#EBEBEB"/>
<path d="M210.9 181.74H135.16V257.48H210.9V181.74Z" fill="white"/>
<path d="M211.28 257.85H208.9V257.1H210.53V255.48H211.28V257.85Z" fill="#7F5BEB"/>
<path d="M206 257.85H202V257.1H206V257.85ZM199.12 257.85H195.19V257.1H199.12V257.85ZM192.24 257.85H188.31V257.1H192.24V257.85ZM185.36 257.85H181.43V257.1H185.36V257.85ZM178.48 257.85H174.55V257.1H178.48V257.85ZM171.6 257.85H167.67V257.1H171.6V257.85ZM164.72 257.85H160.79V257.1H164.72V257.85ZM157.84 257.85H153.91V257.1H157.84V257.85ZM150.96 257.85H147V257.1H150.93L150.96 257.85ZM144.08 257.85H140.11V257.1H144L144.08 257.85Z" fill="#7F5BEB"/>
<path d="M137.16 257.85H134.79V255.48H135.54V257.1H137.16V257.85Z" fill="#7F5BEB"/>
<path d="M135.54 252.53H134.79V248.6H135.54V252.53ZM135.54 245.65H134.79V241.72H135.54V245.65ZM135.54 238.77H134.79V234.84H135.54V238.77ZM135.54 231.89H134.79V228H135.54V231.89ZM135.54 225.01H134.79V221.08H135.54V225.01ZM135.54 218.13H134.79V214.2H135.54V218.13ZM135.54 211.25H134.79V207.32H135.54V211.25ZM135.54 204.37H134.79V200.44H135.54V204.37ZM135.54 197.49H134.79V193.56H135.54V197.49ZM135.54 190.62H134.79V186.68H135.54V190.62Z" fill="#7F5BEB"/>
<path d="M135.54 183.74H134.79V181.36H137.16V182.11H135.54V183.74Z" fill="#7F5BEB"/>
<path d="M206 182.11H202V181.36H206V182.11ZM199.12 182.11H195.19V181.36H199.12V182.11ZM192.24 182.11H188.31V181.36H192.24V182.11ZM185.36 182.11H181.43V181.36H185.36V182.11ZM178.48 182.11H174.55V181.36H178.48V182.11ZM171.6 182.11H167.67V181.36H171.6V182.11ZM164.72 182.11H160.79V181.36H164.72V182.11ZM157.84 182.11H153.91V181.36H157.84V182.11ZM150.96 182.11H147V181.36H150.93L150.96 182.11ZM144.08 182.11H140.11V181.36H144L144.08 182.11Z" fill="#7F5BEB"/>
<path d="M211.28 183.74H210.53V182.11H208.9V181.36H211.28V183.74Z" fill="#7F5BEB"/>
<path d="M211.28 252.53H210.53V248.6H211.28V252.53ZM211.28 245.65H210.53V241.72H211.28V245.65ZM211.28 238.77H210.53V234.84H211.28V238.77ZM211.28 231.89H210.53V228H211.28V231.89ZM211.28 225.01H210.53V221.08H211.28V225.01ZM211.28 218.13H210.53V214.2H211.28V218.13ZM211.28 211.25H210.53V207.32H211.28V211.25ZM211.28 204.37H210.53V200.44H211.28V204.37ZM211.28 197.49H210.53V193.56H211.28V197.49ZM211.28 190.62H210.53V186.68H211.28V190.62Z" fill="#7F5BEB"/>
<path d="M138.12 178.79H132.22V184.69H138.12V178.79Z" fill="#7F5BEB"/>
<path d="M175.99 178.79H170.09V184.69H175.99V178.79Z" fill="#7F5BEB"/>
<path d="M213.86 178.79H207.96V184.69H213.86V178.79Z" fill="#7F5BEB"/>
<path d="M138.12 254.53H132.22V260.43H138.12V254.53Z" fill="#7F5BEB"/>
<path d="M175.99 254.53H170.09V260.43H175.99V254.53Z" fill="#7F5BEB"/>
<path d="M213.86 254.53H207.96V260.43H213.86V254.53Z" fill="#7F5BEB"/>
<path d="M138.12 216.66H132.22V222.56H138.12V216.66Z" fill="#7F5BEB"/>
<path d="M213.86 216.66H207.96V222.56H213.86V216.66Z" fill="#7F5BEB"/>
<path d="M201.96 190.68H144.11V248.53H201.96V190.68Z" fill="#455A64"/>
<path d="M164.84 226.7V212.51L181.23 221.38L164.84 226.7Z" fill="white"/>
<path d="M268.88 267.86H172.15V279.98H268.88V267.86Z" fill="#7F5BEB"/>
<path d="M268.63 279.94H172.41V387H268.63V279.94Z" fill="white"/>
<path d="M269 387.37H264.62V386.62H268.25V386.45H269V387.37ZM261.62 387.37H257.62V386.62H261.62V387.37ZM254.62 387.37H250.62V386.62H254.62V387.37ZM247.62 387.37H243.62V386.62H247.62V387.37ZM240.62 387.37H236.62V386.62H240.62V387.37ZM233.62 387.37H229.62V386.62H233.62V387.37ZM226.62 387.37H222.62V386.62H226.62V387.37ZM219.62 387.37H215.62V386.62H219.62V387.37ZM212.62 387.37H208.62V386.62H212.62V387.37ZM205.62 387.37H201.62V386.62H205.62V387.37ZM198.62 387.37H194.62V386.62H198.62V387.37ZM191.62 387.37H187.62V386.62H191.62V387.37ZM184.62 387.37H180.62V386.62H184.62V387.37ZM177.62 387.37H173.62V386.62H177.62V387.37ZM172.78 385.21H172V381.21H172.75L172.78 385.21ZM269 383.45H268.25V379.45H269V383.45ZM172.78 378.21H172V374.21H172.75L172.78 378.21ZM269 376.45H268.25V372.45H269V376.45ZM172.78 371.21H172V367.21H172.75L172.78 371.21ZM269 369.45H268.25V365.45H269V369.45ZM172.78 364.21H172V360.21H172.75L172.78 364.21ZM269 362.45H268.25V358.45H269V362.45ZM172.78 357.21H172V353.21H172.75L172.78 357.21ZM269 355.45H268.25V351.45H269V355.45ZM172.78 350.21H172V346.21H172.75L172.78 350.21ZM269 348.45H268.25V344.45H269V348.45ZM172.78 343.21H172V339.21H172.75L172.78 343.21ZM269 341.45H268.25V337.45H269V341.45ZM172.78 336.21H172V332.21H172.75L172.78 336.21ZM269 334.45H268.25V330.45H269V334.45ZM172.78 329.21H172V325.21H172.75L172.78 329.21ZM269 327.45H268.25V323.45H269V327.45ZM172.78 322.21H172V318.21H172.75L172.78 322.21ZM269 320.45H268.25V316.45H269V320.45ZM172.78 315.21H172V311.21H172.75L172.78 315.21ZM269 313.45H268.25V309.45H269V313.45ZM172.78 308.21H172V304.21H172.75L172.78 308.21ZM269 306.45H268.25V302.45H269V306.45ZM172.78 301.21H172V297.21H172.75L172.78 301.21ZM269 299.45H268.25V295.45H269V299.45ZM172.78 294.21H172V290.21H172.75L172.78 294.21ZM269 292.45H268.25V288.45H269V292.45ZM172.78 287.21H172V283.21H172.75L172.78 287.21ZM269 285.45H268.25V281.45H269V285.45ZM267.13 280.32H263.13V279.57H267.13V280.32ZM260.13 280.32H256.13V279.57H260.13V280.32ZM253.13 280.32H249.13V279.57H253.13V280.32ZM246.13 280.32H242.13V279.57H246.13V280.32ZM239.13 280.32H235.13V279.57H239.13V280.32ZM232.13 280.32H228.13V279.57H232.13V280.32ZM225.13 280.32H221.13V279.57H225.13V280.32ZM218.13 280.32H214.13V279.57H218.13V280.32ZM211.13 280.32H207.13V279.57H211.13V280.32ZM204.13 280.32H200.13V279.57H204.13V280.32ZM197.13 280.32H193.13V279.57H197.13V280.32ZM190.13 280.32H186.13V279.57H190.13V280.32ZM183.13 280.32H179.13V279.57H183.13V280.32ZM176.13 280.32H172.4V280.21H172V279.57H176.1L176.13 280.32Z" fill="#7F5BEB"/>
<path d="M268.9 387.17H172.15V279.76H268.9V387.17ZM172.68 386.82H268.36V280.12H172.68V386.82Z" fill="#DBDBDB"/>
<path d="M172.66 387.06L172.16 386.93L268.38 279.88L268.88 280.01L172.66 387.06Z" fill="#DBDBDB"/>
<path d="M268.38 387.06L172.16 280.01L172.66 279.88L268.88 386.93L268.38 387.06Z" fill="#DBDBDB"/>
<path d="M345.18 168C345.182 171.862 346.329 175.637 348.476 178.848C350.623 182.058 353.674 184.56 357.243 186.036C360.812 187.513 364.738 187.898 368.526 187.144C372.314 186.389 375.793 184.528 378.523 181.796C381.254 179.065 383.113 175.585 383.866 171.796C384.618 168.008 384.231 164.082 382.752 160.514C381.274 156.946 378.771 153.896 375.559 151.751C372.348 149.605 368.572 148.46 364.71 148.46C359.53 148.465 354.564 150.526 350.903 154.19C347.241 157.853 345.183 162.82 345.18 168ZM349.34 168C349.34 164.958 350.242 161.984 351.933 159.454C353.623 156.925 356.026 154.954 358.837 153.79C361.648 152.626 364.741 152.322 367.724 152.916C370.708 153.511 373.448 154.976 375.599 157.128C377.749 159.28 379.213 162.022 379.806 165.006C380.398 167.99 380.092 171.082 378.926 173.893C377.761 176.703 375.788 179.104 373.257 180.793C370.727 182.482 367.752 183.382 364.71 183.38C362.691 183.38 360.691 182.982 358.826 182.209C356.96 181.436 355.266 180.303 353.838 178.875C352.411 177.446 351.279 175.751 350.507 173.885C349.735 172.019 349.339 170.019 349.34 168ZM345.18 168C345.182 171.862 346.329 175.637 348.476 178.848C350.623 182.058 353.674 184.56 357.243 186.036C360.812 187.513 364.738 187.898 368.526 187.144C372.314 186.389 375.793 184.528 378.523 181.796C381.254 179.065 383.113 175.585 383.866 171.796C384.618 168.008 384.231 164.082 382.752 160.514C381.274 156.946 378.771 153.896 375.559 151.751C372.348 149.605 368.572 148.46 364.71 148.46C359.53 148.465 354.564 150.526 350.903 154.19C347.241 157.853 345.183 162.82 345.18 168ZM349.34 168C349.34 164.958 350.242 161.984 351.933 159.454C353.623 156.925 356.026 154.954 358.837 153.79C361.648 152.626 364.741 152.322 367.724 152.916C370.708 153.511 373.448 154.976 375.599 157.128C377.749 159.28 379.213 162.022 379.806 165.006C380.398 167.99 380.092 171.082 378.926 173.893C377.761 176.703 375.788 179.104 373.257 180.793C370.727 182.482 367.752 183.382 364.71 183.38C362.691 183.38 360.691 182.982 358.826 182.209C356.96 181.436 355.266 180.303 353.838 178.875C352.411 177.446 351.279 175.751 350.507 173.885C349.735 172.019 349.339 170.019 349.34 168ZM331.78 168C331.794 174.51 333.737 180.87 337.364 186.276C340.991 191.682 346.138 195.892 352.157 198.373C358.175 200.855 364.794 201.497 371.177 200.219C377.56 198.94 383.421 195.798 388.02 191.19C392.618 186.582 395.747 180.715 397.012 174.329C398.277 167.943 397.621 161.325 395.127 155.312C392.632 149.299 388.411 144.16 382.998 140.545C377.584 136.93 371.22 135 364.71 135C360.38 135.001 356.093 135.856 352.094 137.516C348.094 139.176 344.462 141.608 341.403 144.673C338.345 147.738 335.92 151.376 334.269 155.378C332.618 159.381 331.772 163.67 331.78 168ZM343.31 168C343.31 163.765 344.566 159.625 346.919 156.104C349.272 152.583 352.616 149.839 356.529 148.219C360.442 146.599 364.747 146.175 368.901 147.002C373.054 147.829 376.869 149.869 379.863 152.864C382.857 155.86 384.895 159.675 385.72 163.829C386.545 167.983 386.119 172.288 384.497 176.2C382.875 180.112 380.13 183.455 376.608 185.807C373.085 188.158 368.945 189.412 364.71 189.41C359.035 189.402 353.595 187.143 349.583 183.13C345.571 179.116 343.315 173.675 343.31 168ZM345.18 168C345.182 171.862 346.329 175.637 348.476 178.848C350.623 182.058 353.674 184.56 357.243 186.036C360.812 187.513 364.738 187.898 368.526 187.144C372.314 186.389 375.793 184.528 378.523 181.796C381.254 179.065 383.113 175.585 383.866 171.796C384.618 168.008 384.231 164.082 382.752 160.514C381.274 156.946 378.771 153.896 375.559 151.751C372.348 149.605 368.572 148.46 364.71 148.46C359.53 148.465 354.564 150.526 350.903 154.19C347.241 157.853 345.183 162.82 345.18 168ZM349.34 168C349.34 164.958 350.242 161.984 351.933 159.454C353.623 156.925 356.026 154.954 358.837 153.79C361.648 152.626 364.741 152.322 367.724 152.916C370.708 153.511 373.448 154.976 375.599 157.128C377.749 159.28 379.213 162.022 379.806 165.006C380.398 167.99 380.092 171.082 378.926 173.893C377.761 176.703 375.788 179.104 373.257 180.793C370.727 182.482 367.752 183.382 364.71 183.38C362.691 183.38 360.691 182.982 358.826 182.209C356.96 181.436 355.266 180.303 353.838 178.875C352.411 177.446 351.279 175.751 350.507 173.885C349.735 172.019 349.339 170.019 349.34 168Z" fill="#7F5BEB"/>
<path d="M360.85 135.64H368.39L367.63 128.11H361.6L360.85 135.64Z" fill="#7F5BEB"/>
<path d="M377.53 138.03L384.06 141.8L387.17 134.91L381.94 131.89L377.53 138.03Z" fill="#7F5BEB"/>
<path d="M390.78 148.45L394.55 154.98L400.69 150.57L397.68 145.34L390.78 148.45Z" fill="#7F5BEB"/>
<path d="M397.05 164.1V171.64L404.57 170.89V164.85L397.05 164.1Z" fill="#7F5BEB"/>
<path d="M394.65 180.79L390.88 187.32L397.77 190.43L400.79 185.2L394.65 180.79Z" fill="#7F5BEB"/>
<path d="M384.23 194.04L377.7 197.81L382.11 203.95L387.34 200.93L384.23 194.04Z" fill="#7F5BEB"/>
<path d="M368.58 200.3H361.04L361.79 207.83H367.83L368.58 200.3Z" fill="#7F5BEB"/>
<path d="M351.9 197.91L345.37 194.13L342.25 201.03L347.48 204.05L351.9 197.91Z" fill="#7F5BEB"/>
<path d="M338.65 187.49L334.88 180.96L328.73 185.37L331.75 190.6L338.65 187.49Z" fill="#7F5BEB"/>
<path d="M332.38 171.84V164.3L324.85 165.05V171.09L332.38 171.84Z" fill="#7F5BEB"/>
<path d="M334.78 155.15L338.55 148.62L331.65 145.51L328.64 150.74L334.78 155.15Z" fill="#7F5BEB"/>
<path d="M345.2 141.9L351.73 138.13L347.31 131.99L342.08 135.01L345.2 141.9Z" fill="#7F5BEB"/>
<path d="M281.85 136.86C281.731 141.346 282.945 145.767 285.338 149.563C287.732 153.36 291.197 156.361 295.297 158.188C299.396 160.014 303.945 160.584 308.368 159.825C312.791 159.067 316.89 157.013 320.146 153.925C323.403 150.837 325.67 146.852 326.661 142.475C327.653 138.098 327.324 133.526 325.717 129.335C324.109 125.145 321.296 121.526 317.631 118.935C313.967 116.344 309.616 114.898 305.13 114.78C299.115 114.621 293.283 116.858 288.918 120.999C284.552 125.14 282.01 130.845 281.85 136.86ZM293.94 137.18C293.994 135.084 294.669 133.051 295.879 131.338C297.089 129.625 298.78 128.31 300.737 127.558C302.695 126.806 304.832 126.652 306.877 127.115C308.922 127.579 310.784 128.638 312.227 130.159C313.67 131.681 314.63 133.596 314.984 135.663C315.338 137.73 315.072 139.855 314.218 141.771C313.364 143.686 311.961 145.305 310.187 146.423C308.412 147.54 306.346 148.107 304.25 148.05C302.859 148.014 301.489 147.704 300.218 147.138C298.947 146.572 297.8 145.761 296.843 144.751C295.885 143.742 295.136 142.554 294.638 141.254C294.14 139.955 293.903 138.571 293.94 137.18Z" fill="#C7C7C7"/>
<path d="M300.75 115.6L309.47 115.83L309.15 109.65L301.4 109.44L300.75 115.6Z" fill="#C7C7C7"/>
<path d="M317.27 118.98L323.28 125.31L327.43 120.71L322.09 115.08L317.27 118.98Z" fill="#C7C7C7"/>
<path d="M326.57 133.05L326.34 141.77L332.53 141.46L332.73 133.7L326.57 133.05Z" fill="#C7C7C7"/>
<path d="M323.19 149.58L316.86 155.58L321.46 159.73L327.09 154.39L323.19 149.58Z" fill="#C7C7C7"/>
<path d="M309.12 158.87L300.4 158.64L300.72 164.83L308.48 165.03L309.12 158.87Z" fill="#C7C7C7"/>
<path d="M292.6 155.5L286.59 149.16L282.44 153.77L287.78 159.4L292.6 155.5Z" fill="#C7C7C7"/>
<path d="M283.3 141.42L283.53 132.7L277.34 133.02L277.14 140.78L283.3 141.42Z" fill="#C7C7C7"/>
<path d="M286.68 124.9L293.01 118.9L288.41 114.75L282.78 120.09L286.68 124.9Z" fill="#C7C7C7"/>
<path d="M393.35 122.57C395.229 122.746 397.118 122.361 398.778 121.463C400.438 120.565 401.794 119.195 402.675 117.526C403.556 115.857 403.923 113.965 403.728 112.088C403.534 110.211 402.787 108.433 401.582 106.981C400.377 105.528 398.769 104.466 396.96 103.928C395.151 103.389 393.223 103.4 391.42 103.958C389.617 104.515 388.02 105.595 386.831 107.06C385.642 108.526 384.914 110.311 384.74 112.19C384.623 113.437 384.753 114.695 385.122 115.892C385.492 117.089 386.094 118.201 386.893 119.165C387.693 120.129 388.675 120.926 389.783 121.51C390.891 122.094 392.103 122.455 393.35 122.57ZM385.9 112.3C386.053 110.652 386.692 109.086 387.735 107.801C388.779 106.516 390.18 105.569 391.761 105.08C393.342 104.59 395.033 104.581 396.62 105.053C398.207 105.525 399.618 106.457 400.675 107.731C401.732 109.005 402.388 110.563 402.559 112.21C402.73 113.856 402.41 115.516 401.637 116.981C400.865 118.445 399.676 119.647 398.22 120.436C396.765 121.224 395.108 121.563 393.46 121.41C392.365 121.308 391.302 120.992 390.329 120.479C389.357 119.966 388.495 119.267 387.793 118.421C387.091 117.575 386.562 116.599 386.238 115.549C385.913 114.499 385.798 113.395 385.9 112.3ZM393.35 122.57C395.229 122.746 397.118 122.361 398.778 121.463C400.438 120.565 401.794 119.195 402.675 117.526C403.556 115.857 403.923 113.965 403.728 112.088C403.534 110.211 402.787 108.433 401.582 106.981C400.377 105.528 398.769 104.466 396.96 103.928C395.151 103.389 393.223 103.4 391.42 103.958C389.617 104.515 388.02 105.595 386.831 107.06C385.642 108.526 384.914 110.311 384.74 112.19C384.623 113.437 384.753 114.695 385.122 115.892C385.492 117.089 386.094 118.201 386.893 119.165C387.693 120.129 388.675 120.926 389.783 121.51C390.891 122.094 392.103 122.455 393.35 122.57ZM385.9 112.3C386.053 110.652 386.692 109.086 387.735 107.801C388.779 106.516 390.18 105.569 391.761 105.08C393.342 104.59 395.033 104.581 396.62 105.053C398.207 105.525 399.618 106.457 400.675 107.731C401.732 109.005 402.388 110.563 402.559 112.21C402.73 113.856 402.41 115.516 401.637 116.981C400.865 118.445 399.676 119.647 398.22 120.436C396.765 121.224 395.108 121.563 393.46 121.41C392.365 121.308 391.302 120.992 390.329 120.479C389.357 119.966 388.495 119.267 387.793 118.421C387.091 117.575 386.562 116.599 386.238 115.549C385.913 114.499 385.798 113.395 385.9 112.3ZM393.35 122.57C395.229 122.746 397.118 122.361 398.778 121.463C400.438 120.565 401.794 119.195 402.675 117.526C403.556 115.857 403.923 113.965 403.728 112.088C403.534 110.211 402.787 108.433 401.582 106.981C400.377 105.528 398.769 104.466 396.96 103.928C395.151 103.389 393.223 103.4 391.42 103.958C389.617 104.515 388.02 105.595 386.831 107.06C385.642 108.526 384.914 110.311 384.74 112.19C384.623 113.437 384.753 114.695 385.122 115.892C385.492 117.089 386.094 118.201 386.893 119.165C387.693 120.129 388.675 120.926 389.783 121.51C390.891 122.094 392.103 122.455 393.35 122.57ZM385.9 112.3C386.053 110.652 386.692 109.086 387.735 107.801C388.779 106.516 390.18 105.569 391.761 105.08C393.342 104.59 395.033 104.581 396.62 105.053C398.207 105.525 399.618 106.457 400.675 107.731C401.732 109.005 402.388 110.563 402.559 112.21C402.73 113.856 402.41 115.516 401.637 116.981C400.865 118.445 399.676 119.647 398.22 120.436C396.765 121.224 395.108 121.563 393.46 121.41C392.365 121.308 391.302 120.992 390.329 120.479C389.357 119.966 388.495 119.267 387.793 118.421C387.091 117.575 386.562 116.599 386.238 115.549C385.913 114.499 385.798 113.395 385.9 112.3ZM392.37 133.09C396.328 133.458 400.307 132.645 403.803 130.752C407.298 128.86 410.154 125.973 412.01 122.457C413.865 118.942 414.636 114.955 414.226 111.001C413.815 107.047 412.241 103.303 409.703 100.244C407.165 97.184 403.777 94.9457 399.967 93.8117C396.157 92.6777 392.096 92.699 388.298 93.8728C384.5 95.0466 381.135 97.3202 378.63 100.406C376.124 103.492 374.589 107.252 374.22 111.21C373.728 116.518 375.363 121.804 378.766 125.907C382.169 130.01 387.063 132.593 392.37 133.09ZM383.26 112.09C383.467 109.926 384.31 107.872 385.683 106.187C387.056 104.502 388.897 103.261 390.975 102.622C393.052 101.983 395.273 101.973 397.356 102.595C399.438 103.216 401.291 104.441 402.678 106.114C404.065 107.788 404.926 109.834 405.151 111.996C405.376 114.158 404.956 116.339 403.943 118.262C402.93 120.185 401.37 121.765 399.46 122.802C397.549 123.84 395.375 124.288 393.21 124.09C391.765 123.958 390.36 123.542 389.076 122.865C387.793 122.188 386.656 121.264 385.731 120.146C384.806 119.028 384.112 117.738 383.688 116.35C383.263 114.962 383.118 113.504 383.26 112.06V112.09ZM384.74 112.22C384.564 114.099 384.949 115.989 385.847 117.649C386.745 119.309 388.116 120.666 389.785 121.547C391.455 122.428 393.348 122.794 395.225 122.599C397.103 122.404 398.88 121.656 400.333 120.45C401.785 119.244 402.847 117.635 403.384 115.825C403.921 114.015 403.909 112.087 403.35 110.284C402.791 108.481 401.71 106.885 400.243 105.697C398.776 104.509 396.99 103.782 395.11 103.61C392.599 103.381 390.099 104.155 388.157 105.763C386.214 107.37 384.986 109.681 384.74 112.19V112.22ZM385.9 112.33C386.053 110.682 386.692 109.116 387.735 107.831C388.779 106.546 390.18 105.599 391.761 105.11C393.342 104.62 395.033 104.611 396.62 105.083C398.207 105.555 399.618 106.487 400.675 107.761C401.732 109.035 402.388 110.593 402.559 112.24C402.73 113.886 402.41 115.546 401.637 117.011C400.865 118.475 399.676 119.677 398.22 120.466C396.765 121.254 395.108 121.593 393.46 121.44C392.363 121.338 391.296 121.021 390.322 120.506C389.347 119.992 388.484 119.29 387.781 118.44C387.079 117.591 386.551 116.611 386.228 115.558C385.906 114.504 385.794 113.397 385.9 112.3V112.33ZM393.35 122.6C395.229 122.776 397.118 122.391 398.778 121.493C400.438 120.595 401.794 119.225 402.675 117.556C403.556 115.887 403.923 113.995 403.728 112.118C403.534 110.241 402.787 108.463 401.582 107.011C400.377 105.558 398.769 104.496 396.96 103.958C395.151 103.419 393.223 103.43 391.42 103.988C389.617 104.545 388.02 105.625 386.831 107.09C385.642 108.556 384.914 110.341 384.74 112.22C384.512 114.734 385.291 117.235 386.905 119.176C388.519 121.116 390.837 122.337 393.35 122.57V122.6ZM385.9 112.3C386.053 110.652 386.692 109.086 387.735 107.801C388.779 106.516 390.18 105.569 391.761 105.08C393.342 104.59 395.033 104.581 396.62 105.053C398.207 105.525 399.618 106.457 400.675 107.731C401.732 109.005 402.388 110.563 402.559 112.21C402.73 113.856 402.41 115.516 401.637 116.981C400.865 118.445 399.676 119.647 398.22 120.436C396.765 121.224 395.108 121.563 393.46 121.41C392.365 121.308 391.302 120.992 390.329 120.479C389.357 119.966 388.495 119.267 387.793 118.421C387.091 117.575 386.562 116.599 386.238 115.549C385.913 114.499 385.798 113.395 385.9 112.3ZM393.35 122.57C395.229 122.746 397.118 122.361 398.778 121.463C400.438 120.565 401.794 119.195 402.675 117.526C403.556 115.857 403.923 113.965 403.728 112.088C403.534 110.211 402.787 108.433 401.582 106.981C400.377 105.528 398.769 104.466 396.96 103.928C395.151 103.389 393.223 103.4 391.42 103.958C389.617 104.515 388.02 105.595 386.831 107.06C385.642 108.526 384.914 110.311 384.74 112.19C384.623 113.437 384.753 114.695 385.122 115.892C385.492 117.089 386.094 118.201 386.893 119.165C387.693 120.129 388.675 120.926 389.783 121.51C390.891 122.094 392.103 122.455 393.35 122.57ZM385.9 112.3C386.053 110.652 386.692 109.086 387.735 107.801C388.779 106.516 390.18 105.569 391.761 105.08C393.342 104.59 395.033 104.581 396.62 105.053C398.207 105.525 399.618 106.457 400.675 107.731C401.732 109.005 402.388 110.563 402.559 112.21C402.73 113.856 402.41 115.516 401.637 116.981C400.865 118.445 399.676 119.647 398.22 120.436C396.765 121.224 395.108 121.563 393.46 121.41C392.365 121.308 391.302 120.992 390.329 120.479C389.357 119.966 388.495 119.267 387.793 118.421C387.091 117.575 386.562 116.599 386.238 115.549C385.913 114.499 385.798 113.395 385.9 112.3Z" fill="#C7C7C7"/>
<path d="M392.17 93.53L399.87 94.25L399.95 88.76L393.1 88.12L392.17 93.53Z" fill="#C7C7C7"/>
<path d="M406.58 97.48L411.52 103.43L415.45 99.61L411.06 94.32L406.58 97.48Z" fill="#C7C7C7"/>
<path d="M413.97 110.47L413.26 118.16L418.74 118.25L419.38 111.4L413.97 110.47Z" fill="#C7C7C7"/>
<path d="M410.02 124.88L404.07 129.81L407.89 133.75L413.18 129.36L410.02 124.88Z" fill="#C7C7C7"/>
<path d="M397.03 132.27L389.34 131.55L389.26 137.04L396.1 137.68L397.03 132.27Z" fill="#C7C7C7"/>
<path d="M382.62 128.31L377.69 122.37L373.75 126.19L378.14 131.48L382.62 128.31Z" fill="#C7C7C7"/>
<path d="M375.23 115.33L375.95 107.63L370.46 107.55L369.82 114.4L375.23 115.33Z" fill="#C7C7C7"/>
<path d="M379.19 100.92L385.13 95.98L381.31 92.05L376.02 96.44L379.19 100.92Z" fill="#C7C7C7"/>
<path d="M269.62 387.17C274.242 387.181 278.77 388.481 282.693 390.924C286.617 393.367 289.781 396.857 291.83 401H271.49L267.55 412L271.45 423.08H291.81C289.825 427.034 286.82 430.386 283.106 432.79C279.392 435.195 275.104 436.564 270.684 436.756C266.263 436.949 261.872 435.958 257.963 433.886C254.054 431.814 250.769 428.735 248.448 424.969C246.126 421.203 244.852 416.885 244.758 412.462C244.663 408.039 245.751 403.67 247.909 399.808C250.067 395.946 253.217 392.73 257.034 390.492C260.851 388.255 265.196 387.077 269.62 387.08V387.17Z" fill="#455A64"/>
<path d="M126.74 436.61C122.117 436.602 117.588 435.305 113.663 432.863C109.737 430.422 106.571 426.933 104.52 422.79H124.86L128.86 411.73L124.9 400.7H104.55C106.529 396.743 109.529 393.386 113.24 390.976C116.951 388.567 121.238 387.192 125.658 386.995C130.078 386.797 134.471 387.784 138.382 389.853C142.293 391.922 145.581 394.998 147.905 398.763C150.229 402.528 151.505 406.845 151.601 411.269C151.697 415.693 150.611 420.061 148.453 423.924C146.295 427.787 143.145 431.003 139.327 433.24C135.51 435.478 131.165 436.655 126.74 436.65V436.61Z" fill="#455A64"/>
<path d="M140.602 400.689L140.564 422.819L261.404 423.029L261.442 400.9L140.602 400.689Z" fill="#455A64"/>
<path d="M176.121 407.261L176.105 416.371L225.865 416.457L225.881 407.347L176.121 407.261Z" fill="#37474F"/>
</svg>
