<svg width="480" height="426" viewBox="0 0 480 426" fill="none" xmlns="http://www.w3.org/2000/svg">
<path d="M21.26 395C158.2 394.38 311.8 394.38 448.74 395C311.8 395.61 158.2 395.61 21.26 395Z" fill="#263238"/>
<path d="M46.06 394.94L423.95 394.94V367.76L46.06 367.76V394.94Z" fill="#A6A6A6"/>
<path d="M337.13 394.94H350.14V367.76H337.13V394.94Z" fill="#7F5BEB"/>
<path d="M358.73 394.94H371.74V367.76H358.73V394.94Z" fill="#7F5BEB"/>
<path d="M103.98 394.94H116.99V367.76H103.98V394.94Z" fill="#7F5BEB"/>
<path d="M125.58 394.94H138.59V367.76H125.58V394.94Z" fill="#7F5BEB"/>
<path d="M216.54 319.31H441.98V278.74H216.54V319.31Z" fill="#7F5BEB"/>
<path d="M85.96 319.31H216.54V278.74H85.96V319.31Z" fill="#7F5BEB"/>
<path opacity="0.1" d="M85.96 319.31H216.54V278.74H85.96V319.31Z" fill="black"/>
<path d="M220.82 315.1H441.98V282.95H220.82V315.1Z" fill="white"/>
<path d="M220.81 283C275.94 282.84 386.86 282.6 441.97 282.55H442.42V283L442.47 315.15V315.65H442L276.13 315.43L220.7 315.29C220.64 315.17 220.89 283.13 220.84 283H220.81ZM220.81 283L221 315.1C220.16 314.7 276.31 314.95 276.14 314.81C310.14 315.28 408.71 313.68 441.52 315.1V282.95L441.97 283.4C386.85 283.4 275.97 283.11 220.81 282.95V283Z" fill="#DBDBDB"/>
<path d="M429.6 308.49C414.7 308.71 399.8 308.867 384.9 308.96L340.21 309.1L265.51 308.96C250.61 308.88 235.71 308.723 220.81 308.49C235.71 308.257 250.61 308.097 265.51 308.01L340.21 307.87L384.9 308.01C399.8 308.09 414.7 308.25 429.6 308.49Z" fill="#DBDBDB"/>
<path d="M429.6 302.18C414.7 302.413 399.8 302.57 384.9 302.65L340.21 302.8L265.51 302.65C250.61 302.57 235.71 302.413 220.81 302.18C235.71 301.947 250.61 301.787 265.51 301.7L340.21 301.56L384.9 301.7C399.8 301.793 414.7 301.953 429.6 302.18Z" fill="#DBDBDB"/>
<path d="M429.6 295.87C414.7 296.103 399.8 296.263 384.9 296.35L340.21 296.49L265.51 296.35C250.61 296.257 235.71 296.097 220.81 295.87C235.71 295.637 250.61 295.477 265.51 295.39L340.21 295.25L384.9 295.4C399.8 295.48 414.7 295.637 429.6 295.87Z" fill="#DBDBDB"/>
<path d="M429.6 289.56C414.7 289.793 399.8 289.953 384.9 290.04L340.21 290.18L265.51 290.04C250.61 289.96 235.71 289.8 220.81 289.56C235.71 289.327 250.61 289.17 265.51 289.09L340.21 288.94L384.9 289.09C399.8 289.17 414.7 289.327 429.6 289.56Z" fill="#DBDBDB"/>
<path d="M198.84 319.31H31.79V367.75H198.84V319.31Z" fill="#263238"/>
<path d="M417.83 319.31H198.84V367.75H417.83V319.31Z" fill="#37474F"/>
<path d="M191.93 324.34H31.79V362.73H191.93V324.34Z" fill="white"/>
<path d="M191.93 362.72L112 363L31.81 363.16H31.38V362.72L31.31 324.34V323.84C31.78 323.84 191.64 324.18 192.14 324.15C192.23 324.3 191.89 362.55 191.95 362.72H191.93ZM191.93 362.72L191.74 324.34C193.31 324.44 29.21 325.55 32.29 324.34L32.22 362.72L31.79 362.29L111.79 362.45L191.97 362.72H191.93Z" fill="#DBDBDB"/>
<path d="M37.63 328.58C50.49 328.38 63.3467 328.243 76.2 328.17L114.78 328.04L153.36 328.17C166.22 328.237 179.077 328.373 191.93 328.58C179.07 328.78 166.213 328.917 153.36 328.99L114.78 329.12L76.2 329C63.3467 328.927 50.49 328.787 37.63 328.58Z" fill="#DBDBDB"/>
<path d="M37.63 333.56C50.49 333.367 63.3467 333.23 76.2 333.15L114.78 333.03L153.36 333.15C166.22 333.223 179.077 333.36 191.93 333.56C179.07 333.76 166.213 333.9 153.36 333.98L114.78 334.1L76.2 334C63.3467 333.907 50.49 333.76 37.63 333.56Z" fill="#DBDBDB"/>
<path d="M37.63 338.55C50.49 338.35 63.3467 338.21 76.2 338.13L114.78 338.01L153.36 338.13C166.22 338.21 179.077 338.35 191.93 338.55C179.07 338.75 166.213 338.887 153.36 338.96L114.78 339.08L76.2 339C63.3467 338.907 50.49 338.757 37.63 338.55Z" fill="#DBDBDB"/>
<path d="M37.63 343.53C50.49 343.33 63.3467 343.193 76.2 343.12L114.78 342.99L153.36 343.12C166.22 343.193 179.077 343.33 191.93 343.53C179.07 343.73 166.213 343.867 153.36 343.94L114.78 344.07L76.2 343.94C63.3467 343.873 50.49 343.737 37.63 343.53Z" fill="#DBDBDB"/>
<path d="M37.63 348.51C50.49 348.323 63.3467 348.187 76.2 348.1L114.78 347.98L153.36 348.1C166.22 348.173 179.077 348.31 191.93 348.51C179.07 348.71 166.213 348.85 153.36 348.93L114.78 349.05L76.2 348.93C63.3467 348.85 50.49 348.71 37.63 348.51Z" fill="#DBDBDB"/>
<path d="M37.63 353.5C50.49 353.3 63.3467 353.163 76.2 353.09L114.78 352.96L153.36 353.08C166.22 353.16 179.077 353.3 191.93 353.5C179.07 353.7 166.213 353.837 153.36 353.91L114.78 354.04L76.2 353.91C63.3467 353.837 50.49 353.7 37.63 353.5Z" fill="#DBDBDB"/>
<path d="M37.63 358.48C50.49 358.28 63.3467 358.143 76.2 358.07L114.78 357.94L153.36 358.07C166.22 358.137 179.077 358.273 191.93 358.48C179.07 358.68 166.213 358.82 153.36 358.9L114.78 359.02L76.2 358.89C63.3467 358.823 50.49 358.687 37.63 358.48Z" fill="#DBDBDB"/>
<path d="M383.93 240.73H45.18V278.73H383.93V240.73Z" fill="#A6A6A6"/>
<path d="M192.3 248.5H74.08V271.3H192.3V248.5Z" fill="#DBDBDB"/>
<path d="M363.16 248.5H220.82V252.03H363.16V248.5Z" fill="#DBDBDB"/>
<path d="M363.16 257.97H220.82V261.5H363.16V257.97Z" fill="#DBDBDB"/>
<path d="M363.16 267.44H220.82V270.97H363.16V267.44Z" fill="#DBDBDB"/>
<path d="M303.2 240.73H125.31L181.16 103.35H356.42L303.2 240.73Z" fill="#7F5BEB"/>
<path d="M183.64 105.78H355.48L304.82 240.73H129.44L183.64 105.78Z" fill="white"/>
<path d="M183.64 105.78C184.359 118.765 182.947 131.781 179.46 144.31C173.72 164.11 145.25 203.77 139.71 230.51L129.44 240.73H304.82L355.48 105.73L183.64 105.78Z" fill="#EBEBEB"/>
<path d="M183.64 105.78C182.46 122.17 180.35 138.99 173.53 154.13C161.85 179 146.6 202.35 138.93 228.94C141.754 218.269 145.581 207.89 150.36 197.94C154.99 187.94 160.21 178.23 165.29 168.46C170.37 158.69 175.56 148.99 178.17 138.26C180.831 127.584 182.66 116.719 183.64 105.76V105.78Z" fill="#EBEBEB"/>
<path d="M181.85 113.78C179.863 129.721 175.18 145.209 168 159.58C158.63 178.71 148.33 197.49 141.65 217.78C139.88 222.78 138.49 227.96 137.11 233.11C141.51 212.16 150.35 192.46 159.98 173.46C164.78 163.94 169.85 154.54 173.62 144.59C177.424 134.632 180.186 124.307 181.86 113.78H181.85Z" fill="#EBEBEB"/>
<path d="M237.82 238H405L348.4 106.06H183.5C183.5 106.06 182.85 126.06 193.79 154.94C204.1 182.18 223.17 198.55 237.82 238Z" fill="white"/>
<path d="M236.83 238C232.047 226.914 226.288 216.275 219.62 206.21C209.82 191.01 198.07 176.75 191 159.89C184.41 142.82 183.22 124.15 183.5 106.06C183.947 112.06 184.53 118.06 185.25 124.06C186.75 135.92 188.46 147.98 192.76 159.15C199.64 175.94 211.13 190.15 220.56 205.59C227.021 215.841 232.47 226.695 236.83 238Z" fill="white"/>
<path d="M185.14 109.88C188.6 130.2 194.56 150.38 204.51 168.5C211.96 182.13 220.23 195.31 227.36 209.12C229.69 213.76 231.86 218.47 233.78 223.29C225.35 204.29 213.58 187.15 203.64 168.98C193.7 150.81 187.83 130.42 185.14 109.88Z" fill="#EBEBEB"/>
<path d="M241.26 240.73H415.35L356.42 103.35H182.33L241.26 240.73Z" fill="#7F5BEB"/>
<path opacity="0.5" d="M245.73 240.73H415.35L356.42 103.35H186.8L245.73 240.73Z" fill="white"/>
<path d="M353.63 240.73H391.93L333 103.35H294.7L353.63 240.73Z" fill="#7F5BEB"/>
<path d="M259.36 240.73H273.23L214.31 103.35H200.44L259.36 240.73Z" fill="#7F5BEB"/>
</svg>
